<?xml version="1.0" standalone="no"?>
<!DOCTYPE svg PUBLIC "-//W3C//DTD SVG 1.1//EN" "http://www.w3.org/Graphics/SVG/1.1/DTD/svg11.dtd" >
<!--
2013-9-30: Created.
-->
<svg>
<metadata>
Created by iconfont
</metadata>
<defs>

<font id="iconfont" horiz-adv-x="1024" >
  <font-face
    font-family="iconfont"
    font-weight="500"
    font-stretch="normal"
    units-per-em="1024"
    ascent="896"
    descent="-128"
  />
    <missing-glyph />
    
    <glyph glyph-name="x" unicode="x" horiz-adv-x="1001"
d="M281 543q-27 -1 -53 -1h-83q-18 0 -36.5 -6t-32.5 -18.5t-23 -32t-9 -45.5v-76h912v41q0 16 -0.5 30t-0.5 18q0 13 -5 29t-17 29.5t-31.5 22.5t-49.5 9h-133v-97h-438v97zM955 310v-52q0 -23 0.5 -52t0.5 -58t-10.5 -47.5t-26 -30t-33 -16t-31.5 -4.5q-14 -1 -29.5 -0.5
t-29.5 0.5h-32l-45 128h-439l-44 -128h-29h-34q-20 0 -45 1q-25 0 -41 9.5t-25.5 23t-13.5 29.5t-4 30v167h911zM163 247q-12 0 -21 -8.5t-9 -21.5t9 -21.5t21 -8.5q13 0 22 8.5t9 21.5t-9 21.5t-22 8.5zM316 123q-8 -26 -14 -48q-5 -19 -10.5 -37t-7.5 -25t-3 -15t1 -14.5
t9.5 -10.5t21.5 -4h37h67h81h80h64h36q23 0 34 12t2 38q-5 13 -9.5 30.5t-9.5 34.5q-5 19 -11 39h-368zM336 498v228q0 11 2.5 23t10 21.5t20.5 15.5t34 6h188q31 0 51.5 -14.5t20.5 -52.5v-227h-327z" />
    

    
    <glyph glyph-name="shanchu" unicode="&#58930;" d="M344.4593 20.618c15.4235 0 27.902 12.4795 27.902 27.902V355.441408c0 15.4225-12.4795 27.902-27.902 27.902-15.4225 0-27.902-12.4805-27.902-27.902v-306.92249599999997C316.5573 33.0964 329.0368 20.618 344.4593 20.618zM511.872 20.618c15.4235 0 27.902 12.4795 27.902 27.902V355.441408c0 15.4225-12.4795 27.902-27.902 27.902s-27.902-12.4805-27.902-27.902v-306.92249599999997C483.969 33.0964 496.4485 20.618 511.872 20.618zM679.2837 20.618c15.4235 0 27.902 12.4795 27.902 27.902V355.441408c0 15.4225-12.4795 27.902-27.902 27.902s-27.902-12.4805-27.902-27.902v-306.92249599999997C651.3818 33.0964 663.8602 20.618 679.2837 20.618zM818.7935 662.3639H703.2340479999999c-12.4795 48.0113-55.8039 83.7059-107.6572 83.7059H428.16512000000006c-51.8533 0-95.1777-35.6946-107.6572-83.7059H204.949504c-61.5526 0-111.6078-50.0828-111.6078-111.6078v-27.902976h27.901952v-27.901952h55.803904v-530.138112c0-61.526 50.0552-111.6078 111.6078-111.6078h446.432256c61.5547 0 111.6078 50.0818 111.6078 111.6078V494.952192h55.803904v27.901952h27.901952v27.902976C930.4013 612.2821 880.3482 662.3639 818.7935 662.3639zM428.1651 690.2659h167.411712c20.5445 0 38.3652-11.308 48.0389-27.902H380.12723200000005C389.801 678.9578 407.6206 690.2659 428.1651 690.2659zM790.8915-35.1859c0-30.7896-25.0399-55.8039-55.8039-55.8039H288.65536000000003c-30.763 0-59.6726 25.0143-59.6726 55.8039l3.8687 530.1381h558.040064V-35.185919999999896zM149.1446 550.7561c0 30.7896 25.0419 55.8039 55.8039 55.8039H818.793472c30.7651 0 55.8039-25.0143 55.8039-55.8039H149.144576z"  horiz-adv-x="1024" />

    
    <glyph glyph-name="QQ" unicode="&#58882;" d="M971.464704 143.341312 968.998912 160.979712 965.843968 178.185984 963.337216 187.0272 960.917504 196.430592 957.71648 205.401856 954.430464 215.387904 950.668288 224.791296 946.562048 234.454784 939.254784 250.234624 932.769792 264.1344 926.285824 276.562688 920.62208 288.151296 914.138112 298.698496 909.382656 308.383488 899.309568 322.84544 886.64064 342.105856 883.70176 346.861312 882.707456 348.892928 882.707456 350.49344 884.825088 356.999936 887.763968 362.792704 890.314752 374.227712 891.742208 380.130048 891.742208 386.22592 892.478464 391.132928 892.478464 396.06144 891.742208 401.72416 890.92096 406.350592 889.061376 415.73248 886.64064 424.854272 884.435968 433.220352 880.97792 441.348864 877.08672 448.135936 874.015744 454.512384 870.601728 460.586752 865.240064 469.536512 863.25248 472.71296 862.646272 475.479808 860.182528 492.838656 858.58304 504.274688 856.767488 518.432512 853.957632 533.06752 849.547264 549.841664 847.040512 559.245056 845.049856 567.200512 842.284032 576.452352 839.171072 586.287872 836.058112 595.409664 832.079872 605.22368 823.953408 624.182016 819.15392 633.15328 813.359104 643.442432 807.913472 652.26112 802.465792 662.248192 794.769408 671.501056 788.286464 680.47232 780.374016 689.72416 772.332544 698.11072 764.203008 706.216704 754.562048 714.626816 749.504512 717.651712 744.706048 721.846016 734.329856 729.216768 722.312192 737.193728 710.032384 744.413952 697.365504 750.920448 683.531264 756.864768 670.560256 762.507008 657.027072 767.43552 642.24256 771.478272 628.7104 775.087872 614.31296 778.24384 600.694784 781.572864 585.996288 783.172352 571.597824 784.923392 557.246464 786.80448 542.416896 786.80448 528.106496 786.80448 514.271232 786.80448 499.70176 785.960704 486.040576 784.059136 472.421376 782.178048 458.587136 779.864832 444.88192 777.249536 431.911936 774.072064 418.941952 769.878784 406.880256 765.68448 394.81856 761.642752 382.712832 755.698432 371.299328 750.920448 361.182208 745.126656 350.63296 738.62016 340.90496 731.832064 331.308032 724.180736 323.396608 717.069056 310.9888 705.373952 300.698624 694.50112 290.8416 683.951872 281.8048 673.229568 273.332224 662.248192 265.895936 651.548416 258.676736 640.84864 255.304704 636.070656 252.191744 630.277888 245.446656 620.139264 240.086016 610.022144 235.33056 600.469248 231.179264 590.351104 227.115008 581.100288 223.742976 572.4096 220.63104 563.158784 217.474048 554.619648 213.279744 539.141888 210.210816 524.246784 208.525312 511.796992 206.795776 501.074688 206.795776 492.838656 206.795776 486.181632 206.795776 480.258816 203.855872 477.058816 201.17504 472.71296 199.057408 468.822784 197.240832 464.629504 194.950144 455.506688 192.442368 447.119104 191.62112 439.618304 191.058944 434.106112 191.058944 428.183296 185.265152 419.774208 181.157888 411.386624 178.045952 403.302144 175.75424 396.06144 173.98272 389.121792 172.296192 382.594816 172.296192 377.124608 172.296192 371.028736 172.296192 365.9712 173.290496 361.928448 174.716928 354.535168 176.489472 348.892928 173.290496 346.429184 164.210688 339.641088 152.236032 328.660736 144.88576 322.153216 137.709568 315.776768 132.781056 310.696704 128.7168 306.221824 119.983104 296.819456 111.68256 287.416064 105.197568 279.309056 97.415168 267.592448 89.979904 257.045248 82.629632 245.306112 76.447744 234.454784 71.303168 222.910208 65.855488 212.189952 61.877248 201.63968 57.683968 190.637824 54.571008 179.938048 51.501056 168.935168 48.77824 159.380224 47.263744 149.111552 45.57824 139.578112 44.150784 130.304768 43.287552 112.233216 43.287552 95.459072 43.287552 87.936768 44.150784 80.543488 46.44352 67.9616 47.263744 62.427904 48.77824 56.809216 50.6368 51.489536 52.366336 47.730432 55.133184 40.76928 57.25184 39.341824 58.548224 36.402944 60.191744 35.711744 61.186048 35.711744 61.877248 35.711744 69.097472 36.402944 76.447744 38.303488 82.629632 40.76928 89.114624 44.96256 95.03744 48.85376 100.39808 53.955328 106.191872 59.27296 111.077376 64.764672 115.745792 70.989568 119.983104 76.611328 123.961344 81.277696 126.425088 86.63936 131.267584 95.459072 132.781056 99.069696 133.645312 101.230336 134.076416 103.695104 135.201792 105.72672 136.066048 106.158848 137.709568 107.025152 138.74688 107.025152 139.179008 106.158848 140.000256 106.158848 140.822528 105.72672 143.545344 93.729536 146.485248 84.044544 150.419456 73.88544 154.396672 64.764672 157.72672 55.68384 162.871296 47.730432 166.631424 39.341824 170.86976 31.647488 175.75424 24.990464 179.472384 18.590464 189.329408 6.745856 197.933056-3.804416 206.2336-12.018944 214.40512-19.412224 221.495296-25.204992 232.044544-34.58688 236.281856-36.661504 237.707264-38.650112 237.707264-39.644416 236.713984-40.552704 236.281856-40.552704 234.1632-41.244928 226.250752-41.850112 218.901504-42.844416 212.718592-43.709696 206.2336-45.135104 200.569856-46.907648 194.950144-48.637184 190.021632-51.275008 186.131456-53.696768 181.157888-55.296256 178.045952-57.890048 174.716928-59.921664 171.127808-62.816512 166.631424-68.438272 164.94592-71.076096 162.871296-73.366784 160.017408-79.290624 158.461952-84.22016 156.601344-89.146624 156.212224-93.470976 156.212224-99.133696 156.212224-101.598464 155.390976-105.618688 155.390976-109.726976 154.396672-113.7472 154.396672-117.33632 155.390976-121.269504 156.212224-124.77056 158.461952-131.516672 160.017408-134.715648 162.006016-137.9136 164.210688-141.069568 166.631424-143.838464 169.875456-146.993408 172.296192-149.5872 179.472384-154.948864 186.692608-159.444224 194.950144-163.50848 203.855872-167.139584 213.279744-171.02976 223.742976-173.452544 234.1632-176.9536 245.446656-179.289344 256.688128-180.974848 268.273664-182.748416 280.249344-184.477952 303.855616-186.940672 328.195072-187.3728 350.63296-187.3728 361.182208-187.3728 371.299328-187.3728 381.847552-186.940672 390.884352-185.905408 399.617024-185.213184 407.788544-184.477952 420.931584-181.883136 430.398464-179.289344 439.392256-176.9536 455.993344-169.994496 463.516672-167.139584 470.69184-163.50848 482.53952-156.85248 493.216768-151.489792 501.129216-146.43328 506.921984-141.069568 515.95776-142.063872 522.96192-142.843136 536.79616-143.838464 543.281152-143.838464 548.770816-143.838464 552.96512-144.70272 557.246464-146.43328 564.033536-148.893952 571.597824-151.489792 585.996288-155.986176 600.694784-161.345792 615.005184-165.496064 629.445632-168.438016 644.187136-172.155136 659.448832-174.359808 673.931264-175.959296 688.458752-177.990912 702.03392-179.289344 716.560384-180.108544 730.481664-180.108544 744.013824-180.108544 756.854784-180.108544 769.823744-178.554112 782.534656-177.990912 794.769408-175.959296 806.052864-173.452544 817.337344-171.02976 828.147712-168.438016 832.641024-167.139584 837.6576-165.496064 847.040512-161.778944 855.384064-157.887744 863.25248-153.823488 870.601728-149.5872 877.08672-144.70272 879.637504-142.063872 882.707456-138.4768 886.64064-133.677312 890.92096-127.754496 892.478464-124.77056 893.169664-122.264832 894.984192-119.064832 895.676416-115.60576 895.676416-112.275712 896.54272-108.947712 895.676416-104.063232 894.984192-99.868928 893.169664-94.940416 891.742208-90.87616 889.061376-85.946624 885.820416-81.452288 882.707456-77.561088 878.513152-74.275072 869.866496-66.751744 860.182528-59.488512 850.41152-53.696768 840.121344-47.772928 816.603136-36.186368 810.9824-32.727296 809.426944-31.127808 808.430592-30.090496 819.759104-18.675968 824.644608-13.056256 828.70784-7.867648 836.619264 3.588864 844.09856 15.305472 850.41152 25.724672 856.377344 35.711744 864.375808 55.68384 870.601728 72.285952 874.707968 84.044544 877.08672 87.936768 878.513152 91.092736 880.97792 92.995328 882.015232 92.995328 882.707456 92.561152 888.759296 80.543488 894.163968 68.957952 897.968128 62.427904 901.901312 56.809216 905.793536 49.892096 910.808064 43.058944 915.001344 38.303488 917.552128 35.711744 920.059904 33.374976 922.351616 31.647488 924.557312 30.046976 929.398784 27.582208 931.90656 26.717952 933.593088 26.717952 935.839744 26.717952 938.391552 27.582208 941.548544 29.18272 945.050624 30.783232 947.945472 33.374976 950.668288 36.402944 953.73824 40.164096 956.158976 43.058944 958.88384 47.730432 960.917504 51.489536 963.337216 56.809216 964.6336 61.304576 968.136704 72.285952 970.426368 84.434688 972.068864 97.902336 973.193216 105.72672 973.193216 112.233216 973.193216 119.194368 973.193216 127.712Z"  horiz-adv-x="1024" />

    
    <glyph glyph-name="tianjia" unicode="&#58931;" d="M934.950293-144.242803 813.230196-144.242803c-11.211802 0-20.28583 9.112542-20.28583 20.286022 0 11.212366 9.074028 20.286022 20.28583 20.286022l101.433243 0 0 101.429087c0 11.211343 9.074028 20.284999 20.286853 20.284999 11.173938 0 20.286853-9.073656 20.286853-20.284999L955.237146-123.956781C955.237146-135.130262 946.124231-144.242803 934.950293-144.242803zM934.950293 99.187415c-11.212825 0-20.286853 9.113565-20.286853 20.286022L914.663439 241.189569c0 11.211343 9.074028 20.284999 20.286853 20.284999 11.173938 0 20.286853-9.073656 20.286853-20.284999l0-121.716132C955.237146 108.30098 946.124231 99.187415 934.950293 99.187415zM934.950293 342.617633c-11.212825 0-20.286853 9.113565-20.286853 20.286022L914.663439 484.619788c0 11.212366 9.074028 20.284999 20.286853 20.284999 11.173938 0 20.286853-9.072633 20.286853-20.284999l0-121.715109C955.237146 351.731198 946.124231 342.617633 934.950293 342.617633zM934.950293 586.047852c-11.212825 0-20.286853 9.112542-20.286853 20.286022l0 101.429087-101.433243 0c-11.211802 0-20.28583 9.112542-20.28583 20.286022 0 11.212366 9.074028 20.286022 20.28583 20.286022l121.720096 0c11.173938 0 20.286853-9.073656 20.286853-20.286022l0-121.714086C955.237146 595.161417 946.124231 586.047852 934.950293 586.047852zM691.5101-144.242803 569.78898-144.242803c-11.211802 0-20.284807 9.112542-20.284807 20.286022 0 11.212366 9.073004 20.286022 20.284807 20.286022l121.72112 0c11.172915 0 20.286853-9.073656 20.286853-20.286022C711.797977-135.130262 702.683015-144.242803 691.5101-144.242803zM691.5101 707.762961 569.78898 707.762961c-11.211802 0-20.284807 9.112542-20.284807 20.286022 0 11.212366 9.073004 20.286022 20.284807 20.286022l121.72112 0c11.172915 0 20.286853-9.073656 20.286853-20.286022C711.797977 716.875502 702.683015 707.762961 691.5101 707.762961zM668.68739 342.617633c22.386764 0 40.573707-18.146289 40.573707-40.571021 0-22.385846-18.186943-40.571021-40.573707-40.571021L546.967294 261.475592l0-121.716132c0-22.385846-18.186943-40.571021-40.573707-40.571021-22.425651 0-40.572683 18.185174-40.572683 40.571021L465.820904 261.475592 344.100808 261.475592c-22.426674 0-40.572683 18.185174-40.572683 40.571021 0 22.424732 18.147032 40.571021 40.572683 40.571021l121.720096 0L465.820904 464.332742c0 22.424732 18.147032 40.571021 40.572683 40.571021 22.386764 0 40.573707-18.146289 40.573707-40.571021l0-121.715109L668.68739 342.617633zM448.069907 707.762961 326.349811 707.762961c-11.212825 0-20.28583 9.112542-20.28583 20.286022 0 11.212366 9.073004 20.286022 20.28583 20.286022l121.720096 0c11.172915 0 20.286853-9.073656 20.286853-20.286022C468.356761 716.875502 459.243846 707.762961 448.069907 707.762961zM204.630738-144.242803 82.910642-144.242803c-11.213849 0-20.286853 9.112542-20.286853 20.286022L62.623789-2.240649c0 11.211343 9.073004 20.284999 20.286853 20.284999 11.192358 0 20.28583-9.073656 20.28583-20.284999l0-101.429087 101.434266 0c11.193382 0 20.28583-9.073656 20.28583-20.286022C224.916568-135.130262 215.82412-144.242803 204.630738-144.242803zM204.630738 707.762961l-101.434266 0 0-101.429087c0-11.17348-9.093471-20.286022-20.28583-20.286022-11.213849 0-20.286853 9.112542-20.286853 20.286022L62.623789 728.048983c0 11.212366 9.073004 20.286022 20.286853 20.286022l121.720096 0c11.193382 0 20.28583-9.073656 20.28583-20.286022C224.916568 716.875502 215.82412 707.762961 204.630738 707.762961zM82.910642 504.904787c11.192358 0 20.28583-9.072633 20.28583-20.284999l0-121.715109c0-11.172457-9.093471-20.286022-20.28583-20.286022-11.213849 0-20.286853 9.113565-20.286853 20.286022L62.623789 484.619788C62.623789 495.832154 71.696793 504.904787 82.910642 504.904787zM82.910642 261.475592c11.192358 0 20.28583-9.073656 20.28583-20.284999l0-121.716132c0-11.172457-9.093471-20.286022-20.28583-20.286022-11.213849 0-20.286853 9.113565-20.286853 20.286022L62.623789 241.189569C62.623789 252.400912 71.696793 261.475592 82.910642 261.475592zM326.349811-103.669736l121.720096 0c11.172915 0 20.286853-9.073656 20.286853-20.286022 0-11.17348-9.112915-20.286022-20.286853-20.286022L326.349811-144.24178c-11.212825 0-20.28583 9.112542-20.28583 20.286022C306.063981-112.744415 315.136986-103.669736 326.349811-103.669736z"  horiz-adv-x="1024" />

    
    <glyph glyph-name="shanchu1" unicode="&#58932;" d="M205.799402 748.122157 84.136613 748.122157c-11.207709 0-20.27662-9.069563-20.27662-20.275789l0-121.656781c0-11.167341 9.068911-20.275789 20.27662-20.275789 11.188265 0 20.277643 9.108448 20.277643 20.275789l0 101.380992 101.385146 0c11.188265 0 20.27662 9.108448 20.27662 20.275789C226.074998 739.052594 216.986644 748.122157 205.799402 748.122157zM327.460144 707.569556l121.661765 0c11.168821 0 20.27662 9.108448 20.27662 20.275789 0 11.207249-9.107798 20.275789-20.27662 20.275789L327.460144 748.121134c-11.207709 0-20.27662-9.069563-20.27662-20.275789C307.183524 716.678004 316.252435 707.569556 327.460144 707.569556zM692.44544 748.122157 570.784698 748.122157c-11.207709 0-20.277643-9.069563-20.277643-20.275789 0-11.167341 9.069934-20.275789 20.277643-20.275789l121.661765 0c11.167798 0 20.275596 9.108448 20.275596 20.275789C712.72206 739.052594 703.614262 748.122157 692.44544 748.122157zM935.768971 748.122157 814.107206 748.122157c-11.207709 0-20.275596-9.069563-20.275596-20.275789 0-11.167341 9.067888-20.275789 20.275596-20.275789l101.385146 0 0-101.380992c0-11.167341 9.067888-20.275789 20.275596-20.275789 11.167798 0 20.27662 9.108448 20.27662 20.275789L956.044568 727.845345C956.045591 739.052594 946.936769 748.122157 935.768971 748.122157zM935.768971 504.808596c-11.207709 0-20.275596-9.069563-20.275596-20.275789l0-121.656781c0-11.168364 9.067888-20.275789 20.275596-20.275789 11.167798 0 20.27662 9.108448 20.27662 20.275789L956.045591 484.531783C956.045591 495.739033 946.936769 504.808596 935.768971 504.808596zM935.768971 261.495034c-11.207709 0-20.275596-9.069563-20.275596-20.277836l0-121.655757c0-11.167341 9.067888-20.276812 20.275596-20.276812 11.167798 0 20.27662 9.109472 20.27662 20.276812L956.045591 241.217199C956.045591 252.425472 946.936769 261.495034 935.768971 261.495034zM935.768971 18.18045c-11.207709 0-20.275596-9.067516-20.275596-20.274766l0-101.380992-101.385146 0c-11.207709 0-20.275596-9.067516-20.275596-20.274766 0-11.167341 9.067888-20.275789 20.275596-20.275789l121.661765 0c11.167798 0 20.27662 9.108448 20.27662 20.275789L956.046614-2.095339C956.045591 9.11191 946.936769 18.18045 935.768971 18.18045zM692.44544-103.476331 570.784698-103.476331c-11.207709 0-20.277643-9.067516-20.277643-20.274766 0-11.167341 9.069934-20.275789 20.277643-20.275789l121.661765 0c11.167798 0 20.275596 9.108448 20.275596 20.275789C712.72206-112.543847 703.614262-103.476331 692.44544-103.476331zM449.121909-103.476331 327.460144-103.476331c-11.207709 0-20.27662-9.067516-20.27662-20.274766 0-11.167341 9.068911-20.275789 20.27662-20.275789l121.661765 0c11.168821 0 20.27662 9.108448 20.27662 20.275789C469.398529-112.543847 460.290731-103.476331 449.121909-103.476331zM205.799402-103.476331l-101.385146 0 0 101.380992c0 11.207249-9.089378 20.274766-20.277643 20.274766-11.207709 0-20.27662-9.067516-20.27662-20.274766l0-121.656781c0-11.167341 9.068911-20.275789 20.27662-20.275789l121.662789 0c11.188265 0 20.27662 9.108448 20.27662 20.275789C226.074998-112.543847 216.986644-103.476331 205.799402-103.476331zM84.136613 99.284629c11.188265 0 20.277643 9.109472 20.277643 20.276812L104.414256 241.217199c0 11.208273-9.089378 20.277836-20.277643 20.277836-11.207709 0-20.27662-9.069563-20.27662-20.277836l0-121.655757C63.859993 108.394101 72.928904 99.284629 84.136613 99.284629zM84.136613 342.599214c11.188265 0 20.277643 9.108448 20.277643 20.275789L104.414256 484.531783c0 11.207249-9.089378 20.275789-20.277643 20.275789-11.207709 0-20.27662-9.069563-20.27662-20.275789l0-121.656781C63.859993 351.706639 72.928904 342.599214 84.136613 342.599214zM345.202954 261.495034l324.432057 0c22.375507 0 40.554263 18.176988 40.554263 40.551578 0 22.414499-18.178756 40.551578-40.554263 40.551578l-324.432057 0c-22.415417 0-40.55324-18.138102-40.55324-40.551578C304.648691 279.672022 322.787536 261.495034 345.202954 261.495034z"  horiz-adv-x="1024" />

    
    <glyph glyph-name="unie61d" unicode="&#58884;" d="M-56.57 852.89v0 0zM743.314 324.4q-16.558 3.318-21.501 9.921t-1.659 12.145l3.318 5.508q1.094 1.094 2.224 3.318t4.414 9.391 4.978 14.334 2.753 17.652-0.564 19.877-6.638 20.407-13.805 19.877q-15.463 15.463-40.284 19.877t-49.641 0.564-46.885-9.921-36.4-11.581l-14.334-6.638q-11.050-3.318-18.218-4.414t-11.050 0.564-6.073 3.318-1.659 7.732 1.094 10.485 2.753 13.805 3.318 14.899q0 13.239-1.659 24.819t-7.167 25.914-15.994 23.161-26.48 14.334-41.379 3.318-57.372-13.239q-38.624-13.239-78.342-39.154t-68.951-54.052-53.523-54.618-37.53-43.038l-12.145-17.652q-36.4-47.451-54.052-94.901t-16.558-71.707v-23.161q6.638-52.958 32.551-94.901t61.785-67.857 84.415-44.132 93.242-26.48 94.337-11.581q81.662-6.638 169.36 12.675t163.289 66.763 106.481 113.649q18.747 38.624 19.313 72.836t-11.581 55.712-31.457 38.060-36.4 24.29-30.327 9.921zM406.816-18.735q-119.156-5.508-202.443 46.356t-83.285 131.301q0 78.342 82.756 135.15t203.007 62.35 203.007-39.718 82.756-123.569q0-79.438-84.415-142.882t-201.348-68.951zM374.83 286.906q-31.986-3.318-57.372-14.899t-39.718-26.48-24.29-31.986-13.805-33.646-4.978-30.327-1.094-21.501l1.094-8.827v-4.414q0-3.318 2.224-13.239t6.073-18.218 12.675-18.218 20.972-16.558q72.836-35.306 135.714-21.501t101.503 63.443q15.463 18.747 20.407 46.356t-2.224 55.712-24.819 51.299-52.394 35.871-80.003 7.167zM335.11 78.355q-6.638-1.094-12.675-0.564t-11.050 2.224-9.921 3.847-8.261 6.073-6.073 7.732-4.414 8.827-1.659 10.485q0 12.145 6.638 23.725t18.218 19.877 25.914 9.391q9.921 1.094 19.313-0.564t15.994-5.508 11.581-8.827 7.167-11.581 2.224-14.334q0-12.145-7.167-23.161t-19.313-18.747-26.48-8.827zM428.882 157.793q-7.732-5.508-15.994-4.978t-11.581 7.167l-2.224 4.414q-1.094 2.224-1.094 4.414v4.414q0 3.318 1.094 5.508l2.224 4.414q1.094 2.224 3.318 3.318l3.318 4.414q8.827 6.638 17.088 5.508t11.581-8.827q3.318-4.414 2.753-9.921t-3.318-10.485-7.167-9.391zM820.562 388.409q6.638 0 12.145 3.318t8.827 8.261 4.414 10.485q1.094 1.094 1.094 3.318 13.239 125.794-88.265 143.446-29.798 5.508-55.182 1.094-7.732 0-13.239-3.847t-9.391-9.921-3.847-12.675q0-11.050 7.732-18.747t18.747-7.732q86.075 19.877 92.677-55.182 2.224-18.747-2.224-35.306 0-11.050 7.732-18.747t18.747-7.732zM801.815 699.522q-48.545 11.050-130.207-4.414-1.094 0-2.224-1.094l-1.094-2.224-1.094-1.094q-12.145-3.318-19.877-13.805t-7.732-22.63q0-16.558 11.050-27.574t26.48-11.050h3.318q1.094 0 4.978 1.094t8.261 1.659 9.391 2.224 8.827 3.318 14.899 1.659 27.044-1.659 35.306-8.261 38.624-16.558 38.624-27.574 33.646-40.813q28.704-65.104 11.050-125.794 0-1.094-0.564-2.224t-1.659-5.508-2.224-8.261-2.224-9.921-1.094-10.485q0-9.921 5.508-16.558t13.805-9.391 19.313-2.753q30.893 0 36.4 37.53 13.239 43.038 14.899 82.192t-5.508 68.951-21.501 55.712-33.116 44.132-41.943 33.116-44.697 23.725-44.697 14.334z"  horiz-adv-x="1024" />

    
    <glyph glyph-name="iconfont707" unicode="&#58896;" d="M823.16679269 364.44748498L200.83320731 364.44748498c-10.41456966 0-18.85847374 8.54745683-18.85847375 18.9715125s8.44390409 18.9715125 18.85847374 18.97151249l622.33358539 0c10.41456966 0 18.85847374-8.54745683 18.85847374-18.97151249S833.58136235 364.44748498 823.16679269 364.44748498zM530.87981649 694.58499917l0-622.33358541c0-10.41456966-8.54745683-18.85847374-18.9715125-18.85847374s-18.9715125 8.44390409-18.9715125 18.85847374l0 622.33358541c0 10.41456966 8.54745683 18.85847374 18.9715125 18.85847373S530.87981649 704.9995695800001 530.87981649 694.58499917z"  horiz-adv-x="1024" />

    
    <glyph glyph-name="duigou" unicode="&#58922;" d="M364.037087-24.187497c-5.176906 0-10.354835 1.954515-14.334473 5.872754l-1.402953 1.381463c-0.103354 0.102331-0.205685 0.204661-0.306992 0.309038L66.585511 272.560044c-7.869225 8.087189-7.693216 21.022803 0.393973 28.892027 8.086166 7.867178 21.021779 7.692193 28.891004-0.393973l268.255627-275.66948 565.584406 571.97086c7.934716 8.023744 20.87033 8.096399 28.893051 0.162706 8.024767-7.933693 8.096399-20.87033 0.162706-28.894074L378.565988-18.122361C374.569978-22.162374 369.304044-24.187497 364.037087-24.187497z"  horiz-adv-x="1024" />

    
    <glyph glyph-name="vip1" unicode="&#58934;" d="M233.307 30.389l737.645 737.649-316.147 3-0.581-61.029 61.065-0.614-345.581-346.011 3.845 405.131-266.371 2.522-0.581-61.063 127.653-1.211zM878.76 30.389h-49.467v315.211c-11.911-11.363-27.528-22.719-46.855-34.077-19.332-11.363-36.689-19.882-52.078-25.558v47.818c27.662 13.006 51.846 28.76 72.55 47.268 20.701 18.502 35.357 36.455 43.97 53.864h31.878v-404.525z"  horiz-adv-x="1024" />

    
    <glyph glyph-name="vip2" unicode="&#58935;" d="M233.307 30.389l737.645 737.649-316.147 3-0.581-61.029 61.065-0.614-345.581-346.011 3.845 405.131-266.371 2.522-0.581-61.063 127.653-1.211zM952.409 77.932v-47.543h-266.293c-0.369 11.907 1.554 23.359 5.77 34.351 6.776 18.138 17.632 36.001 32.566 53.588 14.93 17.589 36.503 37.925 64.718 61.008 43.786 35.906 73.376 64.35 88.766 85.33 15.39 20.976 23.085 40.809 23.085 59.497 0 19.601-7.009 36.138-21.024 49.604-14.015 13.467-32.29 20.199-54.825 20.199-23.819 0-42.871-7.145-57.161-21.435s-21.53-34.077-21.711-59.36l-50.84 5.222c3.477 37.925 16.579 66.823 39.297 86.704 22.715 19.877 53.22 29.817 91.514 29.817 38.653 0 69.253-10.718 91.787-32.153s33.801-48.002 33.801-79.696c0-16.124-3.298-31.973-9.893-47.543-6.595-15.575-17.545-31.973-32.84-49.191-15.299-17.223-40.72-40.858-76.26-70.902-29.68-24.919-48.737-41.818-57.161-50.703-8.43-8.889-15.39-17.821-20.886-26.795l197.589 0z"  horiz-adv-x="1024" />

    
    <glyph glyph-name="vip4" unicode="&#58936;" d="M233.307 30.389l737.645 737.649-316.147 3-0.581-61.029 61.065-0.614-345.581-346.011 3.845 405.131-266.371 2.522-0.581-61.063 127.653-1.211zM851.004 30.389v96.46h-174.782v45.345l183.849 261.073h40.399v-261.073h54.413v-45.345h-54.413v-96.46h-49.467zM851.004 172.193v181.652l-126.141-181.652h126.141z"  horiz-adv-x="1024" />

    
    <glyph glyph-name="vip5" unicode="&#58937;" d="M217.787 13.676l737.645 737.649-316.147 3-0.581-61.029 61.065-0.614-345.581-346.011 3.845 405.131-266.371 2.522-0.581-61.063 127.653-1.211zM676.916 119.204l51.94 4.397c3.848-25.283 12.779-44.292 26.794-57.024 14.016-12.736 30.917-19.1 50.704-19.1 23.813 0 43.97 8.974 60.459 26.931 16.489 17.953 24.733 41.771 24.733 71.451 0 28.211-7.927 50.47-23.771 66.78-15.848 16.304-36.598 24.458-62.245 24.458-15.939 0-30.325-3.62-43.146-10.855-12.826-7.239-22.905-16.626-30.229-28.168l-46.444 6.046 39.024 206.935 200.338-0v-47.268h-160.767l-21.709-108.277c24.184 16.854 49.557 25.283 76.124 25.283 35.176 0 64.856-12.186 89.040-36.55 24.184-24.368 36.275-55.698 36.275-93.987 0-36.46-10.628-67.974-31.878-94.536-25.832-32.613-61.104-48.917-105.804-48.917-36.646 0-66.552 10.258-89.728 30.779-23.179 20.517-36.412 47.724-39.71 81.621z"  horiz-adv-x="1024" />

    
    <glyph glyph-name="remind" unicode="&#58938;" d="M538.566466-127.088677C536.442301-127.088677 534.296495-127.023404 532.085637-126.915658 453.644248-122.970174 421.998927-56.558642 416.233425-22.008283 414.28268-10.196423 422.259039 0.96717 434.050197 2.938793 445.754623 5.019952 456.938872-2.999774 458.976262-14.7477 459.474802-17.435546 471.374332-80.44435 534.296495-83.608784 596.069881-87.532361 611.155621-17.196806 611.740847-14.227299 614.038393-2.479817 625.504392 5.258245 637.208818 2.80914 648.95661 0.489687 656.586167-10.932765 654.245257-22.658784 646.962498-59.441417 613.474848-127.088677 538.566466-127.088677L538.566466-127.088677 538.566466-127.088677ZM57.238985 73.833077C57.304035 73.833077 57.412408 72.143111 58.582842 70.907383 60.663619 68.73949 66.819288 66.39858 77.851798 66.39858L950.850912 66.39858C961.710045 66.39858 966.283453 68.674665 967.063743 69.45482L966.110074 72.554425 966.131714 116.251154 967.367175 118.808453C967.540597 123.512631 965.524846 152.361377 900.998697 212.31394 808.577021 298.168097 751.355358 515.957417 751.355358 668.527121 751.355358 791.250196 551.079467 809.283624 549.042032 809.435184L472.724766 809.370357C472.464656 809.283624 272.167125 791.250196 272.167125 668.527121 272.167125 534.814813 227.365126 304.866254 127.704015 212.31394 61.573964 150.887353 57.195664 121.019712 56.935551 116.251154L57.434073 114.820498 57.195664 73.724883C57.217324 73.789709 57.217324 73.833077 57.238985 73.833077L57.238985 73.833077ZM77.851798 23.049233C54.507951 23.049233 36.929651 29.681668 25.63703 42.729706 15.753293 54.174063 13.239004 68.414463 14.084298 77.995393L14.084298 108.990124C11.439979 125.202593 16.07841 167.772233 98.204521 244.067814 178.878427 319.019473 228.817333 522.74186 228.817333 668.527121 228.817333 831.110081 461.085347 851.853262 470.969083 852.654877L480.023302 852.662278 480.023302 877.970885C480.023302 887.439933 487.691443 895.116113 497.162607 895.116113L519.306723 895.116113C528.7725 895.116113 536.446027 887.436396 536.446027 877.974239L536.446027 852.708401 550.819354 852.72015C562.480459 851.853262 794.705104 831.110081 794.705104 668.527121 794.705104 524.454177 849.282468 319.517967 930.498212 244.067814 1011.86574 168.48756 1013.989862 125.267868 1009.481507 107.79776L1009.481507 79.382235C1011.453889 69.389992 1010.478541 55.32306 1001.851903 43.618499 991.751467 29.984788 974.584928 23.049233 950.850912 23.049233L77.851798 23.049233Z"  horiz-adv-x="1024" />

    
    <glyph glyph-name="fenxiang2" unicode="&#58939;" d="M856.098 800c-93.173 0-168.983-75.8-168.983-168.973 0-27.565 6.764-53.529 18.527-76.544l-388.782-192.519c-28.841 52.050-84.288 87.389-147.876 87.389-93.173 0-168.983-75.8-168.983-168.973s75.81-168.983 168.983-168.983c56.018 0 105.63 27.525 136.388 69.638l228.113-165.362c-9.977-21.546-15.701-45.429-15.701-70.699 0-93.173 75.8-168.973 168.973-168.973 93.163 0 168.983 75.8 168.983 168.973 0 93.184-75.83 168.983-168.983 168.983-49.948 0-94.765-21.903-125.717-56.488l-232.286 168.381c5.866 17.139 9.192 35.431 9.192 54.529 0 11.814-1.245 23.342-3.55 34.472l400.728 198.416c30.718-31.554 73.576-51.234 120.963-51.234 93.173 0 168.973 75.81 168.973 168.973 0 93.184-75.79 168.994-168.963 168.994zM686.758 63.947c65.598 0 118.974-53.366 118.974-118.974 0-65.598-53.376-118.954-118.974-118.954-65.608 0-118.964 53.356-118.964 118.954 0 65.608 53.356 118.974 118.964 118.974zM168.983 161.405c-65.598 0-118.974 53.366-118.974 118.974 0 65.598 53.366 118.964 118.974 118.964 65.608 0 118.974-53.366 118.974-118.964-0.010-65.608-53.376-118.974-118.974-118.974zM856.098 512.053c-65.608 0-118.974 53.366-118.974 118.964 0 65.608 53.366 118.964 118.974 118.964s118.954-53.356 118.954-118.964c0-65.598-53.356-118.964-118.954-118.964z"  horiz-adv-x="1026" />

    
    <glyph glyph-name="shangchuan" unicode="&#59045;" d="M392.124284 449.102876c0 0-54.16462 54.894238-127.652332 10.063193-65.750493-42.800805-54.122665-121.130801-54.122665-121.130801s-146.046261-29.915333-146.046261-186.859805c3.25616-156.690692 158.604274-158.297282 158.604274-158.297282l233.191016-0.252757L456.098317 160.383172 344.280626 160.383172l167.758772 167.747515L679.775656 160.383172 567.937498 160.383172 567.937498-7.374576l226.425939 0.252757c0 0 144.56656-0.12689 164.883281 148.94324 9.661034 163.05361-139.745764 195.189518-139.745764 195.189518s16.997116 241.36314-192.811354 268.87882C446.839443 625.243549 392.124284 449.102876 392.124284 449.102876z"  horiz-adv-x="1024" />

    
    <glyph glyph-name="vip6" unicode="&#58942;" d="M922.828 321.552l-51.846-4.008c-4.655 20.428-11.248 35.426-19.653 44.606-14.093 14.869-31.547 22.368-52.234 22.368-16.679 0-31.16-4.655-43.83-13.964-16.42-12.024-29.349-29.479-38.788-52.493-9.438-23.014-14.352-55.725-14.739-98.263 12.541 19.135 27.927 33.358 46.028 42.667 18.101 9.309 37.236 13.964 57.147 13.964 34.78 0 64.388-12.8 88.824-38.4 24.436-25.6 36.719-58.699 36.719-99.297 0-26.634-5.689-51.459-17.196-74.343-11.507-22.885-27.281-40.469-47.451-52.622-20.040-12.154-42.925-18.23-68.396-18.23-43.442 0-78.998 16.032-106.408 47.968-27.41 31.935-41.115 84.687-41.115 158.125 0 82.101 15.127 141.834 45.511 179.2 26.505 32.453 62.19 48.743 106.925 48.743 33.487 0 60.768-9.438 82.23-28.057 21.204-19.006 34.004-44.994 38.271-77.964zM709.754 138.343c0-17.972 3.749-35.168 11.507-51.588 7.628-16.42 18.36-28.962 32.065-37.495 13.705-8.663 28.057-12.929 43.184-12.929 21.98 0 40.986 8.921 56.76 26.634 15.903 17.842 23.79 41.891 23.79 72.404 0 29.349-7.887 52.493-23.531 69.43-15.644 16.937-35.426 25.341-59.087 25.341-23.531 0-43.572-8.404-59.992-25.341-16.549-16.937-24.695-39.046-24.695-66.457zM196.073 3.232l762.958 762.958-326.982 3.103-0.646-63.095 63.224-0.646-357.495-357.883 4.008 419.038-275.523 2.586-0.646-63.224 132.008-1.293-0.905-701.543zM196.073 3.232z"  horiz-adv-x="1024" />

    
    <glyph glyph-name="vip0" unicode="&#58943;" d="M196.073 3.232l762.958 762.958-326.982 3.103-0.646-63.095 63.224-0.646-357.495-357.883 4.008 419.038-275.523 2.586-0.646-63.224 132.008-1.293-0.905-701.543zM944.679 220.962c0-98.651-37.366-218.376-133.042-218.376-97.228 0-135.887 119.725-135.887 218.376 0 97.875 38.788 217.6 135.887 217.6 97.875-0 133.042-123.992 133.042-217.6zM811.636 422.4c-75.378 0-95.030-104.21-95.030-202.085 0-95.806 19.782-202.085 95.806-202.085 72.533 0 92.962 106.279 92.962 202.085 0 97.875-20.428 202.085-92.962 202.085h-0.776z"  horiz-adv-x="1024" />

    
    <glyph glyph-name="guanzhu" unicode="&#59034;" d="M943.834704 19.824767c-57.000202 227.941456-265.339204 320.531224-322.3128 345.468173l0 51.640124c30.260188 23.147186 53.417607 46.299489 73.005734 74.786287 19.588127 32.050973 32.051997 67.677379 35.606962 110.413716l0 1.777483c0 33.835619-3.554966 62.322417-10.677177 87.24811-8.890484 28.502148-21.351284 51.65138-37.385469 71.238484-26.715455 32.051997-64.105017 55.204299-103.278201 65.877383-39.176254 10.686387-83.714633 10.686387-124.655068-1.77339l-10.697643-3.565199c-14.246469-5.334495-30.266327-12.459776-42.723034-21.35947-16.019859-10.688433-30.261211-24.937972-44.515866-39.179324-14.252609-19.587104-28.499078-42.736337-37.384445-71.238484-7.154957-24.924669-10.70276-53.411467-8.919137-87.24811l0-1.777483c3.552919-42.736337 14.230096-78.362742 33.840736-110.413716 17.798365-28.485775 42.72815-51.639101 71.225181-74.786287l0-51.640124c-1.788739-1.785669-3.546779-3.560082-7.122211-3.560082C347.291193 331.45732 167.420569 247.766223 83.761194 21.614529l-8.933463-23.151279 304.514435 0 0 33.833573L122.934378 32.296823c83.668585 197.657732 242.155179 272.446066 299.151287 299.16152 8.887414 3.559059 14.254655 5.348821 17.806551 8.898671l8.91095 3.561106 0 89.037872-7.15291 5.347798c-28.476565 21.363564-51.639101 44.51689-69.415976 71.226205-15.987113 26.640754-26.663266 58.595536-30.233582 95.864348 0.091074 29.574572 3.599991 54.074569 8.837272 75.090209 7.150864 24.925692 19.617803 44.512796 32.074509 60.538795 10.674107 12.459776 23.141046 23.150256 35.603893 32.047904 14.246469 8.915044 30.286794 16.025998 46.296419 21.375843l8.912997 3.562129c32.050973 7.126304 65.890686 7.126304 96.15599-1.785669 33.831526-8.902764 64.125483-28.489868 87.258343-55.200206 12.464893-16.027022 23.139-35.613102 30.264281-60.538795 7.121188-21.37482 10.69969-46.301536 8.909927-76.575026l0 1.772366c-3.567245-37.386492-14.244422-69.437465-30.287817-96.151897-17.798365-26.709315-40.960901-49.862641-71.203692-71.226205l-5.357008-5.347798 0-89.037872 8.91402-5.339612c1.76418 0 5.332449-1.772366 8.90788-3.562129 49.852408-21.36254 236.820684-103.277178 297.372781-302.719556L642.898771 32.296823l0-33.833573L949.171246-1.53675 943.834704 19.824767zM730.80896 119.550049c0 9.212826-7.463995 16.693194-16.662495 16.693194L538.503119 136.243243 538.503119 288.72917c0 9.213849-7.485485 16.688077-16.714683 16.688077-9.198499 0-16.661472-7.474228-16.661472-16.688077l0-152.485927L341.949534 136.243243c-9.219989 0-16.686031-7.481392-16.686031-16.693194 0-9.214872 7.465019-16.686031 16.686031-16.686031l163.17743 0 0-154.250106c0-9.214872 7.462972-16.693194 16.661472-16.693194 9.229199 0 16.714683 7.479345 16.714683 16.693194L538.503119 102.864018l175.643346 0C723.344964 102.864018 730.80896 110.335177 730.80896 119.550049z"  horiz-adv-x="1024" />

    
    <glyph glyph-name="remen" unicode="&#58916;" d="M925.026749 396.569592c-54.444347 124.764456-110.730118 192.442699-130.883432 246.50525-21.420508 57.465962-0.300933 106.40753-0.300933 106.40753-44.684489 8.916426-77.905878-33.634917-102.98467-76.806551-15.518532-26.714476-35.785464-188.624737-67.517541-228.375559-5.408609-6.767927-16.138823-5.115865-19.15225 3.00012C495.789526 739.299774 553.901368 895.582378 553.901368 895.582378 383.394039 831.387386 340.965526 665.319334 332.862848 639.607968c-15.66081-49.660123-9.036185-238.512095-9.036185-238.512095-0.676588-12.912492-18.265828-16.242205-23.627352-4.469984 0 0-44.93629 110.497765-50.16782 171.135809-4.277551 49.632486-4.640923 39.295328-4.640923 39.295328C168.155137 535.811597 82.413735 374.473519 82.413735 266.09764c0-217.65251 192.47443-394.09764 429.906646-394.09764 237.427098 0 429.902552 176.44513 429.902552 394.09764C942.228051 312.52529 942.228051 357.14734 925.026749 396.569592L925.026749 396.569592zM784.055913 22.44102c-72.379557-66.345539-168.880857-102.890501-271.735532-102.890501-102.853652 0-199.354951 36.544962-271.734508 102.890501-71.258734 65.32298-110.501859 151.857658-110.501859 243.651502 0 42.723305 17.349721 102.259974 47.596581 163.346347 11.589 23.406258 24.589519 46.046877 38.191906 66.781585 14.876746-54.584577 36.752749-109.113882 40.15309-117.469384l0.369513-0.907918 0.403291-0.890517c9.871428-21.671286 30.776051-35.131394 54.546705-35.131394 32.033011 0.006141 58.424035 24.953915 60.084286 56.808822l0.107476 2.059448-0.072674 2.070707c-3.105549 88.842856-1.38286 196.395775 6.868238 222.588224 0.438093 1.377742 0.962167 3.109643 1.581435 5.168067 4.874299 16.213545 17.822616 59.269514 47.261869 104.120847 18.356926 27.962223 39.863416 51.833188 64.343412 71.473687-0.403291-7.766943-0.675564-15.951508-0.790206-24.551647-1.375695-106.151634 21.758291-224.171706 68.751981-350.769398 8.495734-22.883208 30.657316-38.257415 55.137312-38.257415 18.00379 0 34.774164 8.071971 46.00491 22.14111 24.310081 30.451576 38.497957 89.377166 55.892716 169.296431 5.232553 24.041903 12.356686 56.802681 16.111187 65.76005 2.512895 4.306211 4.929573 8.266451 7.250034 11.907334 1.995986-11.270666 5.077992-23.049028 9.581755-35.137536 10.333064-27.712469 26.835259-55.260142 47.721458-90.136664 24.37252-40.692517 54.70536-91.334256 84.133354-158.774004 13.244132-30.338982 13.244132-67.945398 13.244132-111.496781C894.557772 174.298678 855.314648 87.764 784.055913 22.44102L784.055913 22.44102zM784.055913 22.44102"  horiz-adv-x="1024" />

    
    <glyph glyph-name="yanjing" unicode="&#58977;" d="M515.2 672c-307.2 0-492.8-313.6-492.8-313.6s214.4-304 492.8-304 492.8 304 492.8 304S822.4 672 515.2 672zM832 243.2c-102.4-86.4-211.2-140.8-320-140.8s-217.6 51.2-320 140.8c-35.2 32-70.4 64-99.2 99.2-6.4 6.4-9.6 12.8-16 19.2 3.2 6.4 9.6 12.8 12.8 19.2 25.6 35.2 57.6 70.4 92.8 102.4 99.2 89.6 208 144 329.6 144s230.4-54.4 329.6-144c35.2-32 64-67.2 92.8-102.4 3.2-6.4 9.6-12.8 12.8-19.2-3.2-6.4-9.6-12.8-16-19.2C902.4 310.4 870.4 275.2 832 243.2zM512 550.4c-96 0-169.6-76.8-169.6-169.6 0-96 76.8-169.6 169.6-169.6 96 0 169.6 76.8 169.6 169.6C681.6 473.6 604.8 550.4 512 550.4zM512 256c-67.2 0-121.6 54.4-121.6 121.6 0 67.2 54.4 121.6 121.6 121.6 67.2 0 121.6-54.4 121.6-121.6C633.6 313.6 579.2 256 512 256z"  horiz-adv-x="1024" />

    
    <glyph glyph-name="dingyue" unicode="&#58897;" d="M128.220161-127.163138C198.854836-127.163138 256.115553-69.902418 256.115553 0.732254 256.115553 71.366927 198.854836 128.627647 128.220161 128.627647 57.585487 128.627647 0.324769 71.366927 0.324769 0.732254 0.324769-69.902418 57.585487-127.163138 128.220161-127.163138ZM85.588364 384.418431C321.271365 384.418431 511.861479 193.702246 511.861479-42.73638 511.861479-89.826158 550.035291-127.999974 597.125074-127.999974 644.214857-127.999974 682.388669-89.826158 682.388669-42.73638 682.388669 287.856583 415.476183 554.945621 85.588364 554.945621 38.498581 554.945621 0.324769 516.771805 0.324769 469.682026 0.324769 422.592247 38.498581 384.418431 85.588364 384.418431ZM85.588364 725.47281C509.606562 725.47281 853.148067 381.93761 853.148067-42.283877 853.148067-89.373665 891.321883-127.547472 938.411662-127.547472 985.501449-127.547472 1023.675257-89.373665 1023.675257-42.283877 1023.675257 476.117884 603.785428 896 85.588364 896 38.498581 896 0.324769 857.826184 0.324769 810.736405 0.324769 763.646626 38.498581 725.47281 85.588364 725.47281Z"  horiz-adv-x="1024" />

    
    <glyph glyph-name="wodezhanghao" unicode="&#58909;" d="M887.611703 715.444784 124.809587 715.444784c-30.988782 0-56.192813-25.177426-56.192813-56.124252L68.616774 111.397369c0-30.943756 25.204032-56.124252 56.192813-56.124252l762.801093 0c31.026644 0 56.17337 25.180496 56.17337 56.124252L943.78405 659.321556C943.779957 690.267359 918.637324 715.444784 887.611703 715.444784zM902.19177 111.397369c0-7.959276-6.540973-14.535041-14.585183-14.535041L124.809587 96.862327c-8.021697 0-14.603603 6.575766-14.603603 14.535041L110.205984 659.321556c0 7.957229 6.581905 14.540158 14.603603 14.540158l762.801093 0c8.039093 0 14.580067-6.581905 14.580067-14.540158L902.190747 111.397369zM419.054121 364.161163c30.502711 23.308869 50.608631 59.697637 50.608631 100.875478 0 70.178339-57.06467 127.277802-127.210263 127.277802-70.14764 0-127.211287-57.099463-127.211287-127.277802 0-41.177841 20.082384-77.56661 50.605561-100.875478-67.992557-29.64825-115.734908-97.387028-115.734908-176.250166 0-11.45182 9.278317-20.796652 20.793582-20.796652 11.472286 0 20.795629 9.344832 20.795629 20.796652 0 81.790818 65.49569 148.229996 146.728806 150.338007 1.38044 0 2.639107-0.405229 4.021593-0.405229 1.376347 0 2.639107 0.405229 3.979638 0.405229 81.311911-2.111081 146.785088-68.547189 146.785088-150.338007 0-11.45182 9.302877-20.796652 20.799722-20.796652 11.490705 0 20.793582 9.344832 20.793582 20.796652C534.810518 266.774135 487.049748 334.513936 419.054121 364.161163zM346.432127 379.83719c-1.334391 0.079818-2.598174 0.406253-3.974521 0.406253-1.382487 0-2.641153-0.326435-4.022617-0.406253-45.333488 2.191922-81.59946 39.393195-81.59946 85.199451 0 47.269583 38.379099 85.690638 85.617983 85.690638 47.194882 0 85.621053-38.421055 85.621053-85.690638C428.073542 419.230386 391.761522 382.029112 346.432127 379.83719zM819.007209 554.300664 540.904307 554.300664c-11.533684 0-20.794605-9.339716-20.794605-20.791535 0-11.452843 9.260921-20.791535 20.794605-20.791535L819.007209 512.717593c11.494799 0 20.793582 9.338692 20.793582 20.791535C839.800791 544.959925 830.502008 554.300664 819.007209 554.300664zM819.007209 426.050722 540.904307 426.050722c-11.533684 0-20.794605-9.259898-20.794605-20.791535 0-11.453866 9.260921-20.792559 20.794605-20.792559L819.007209 384.466628c11.494799 0 20.793582 9.338692 20.793582 20.792559C839.800791 416.791847 830.502008 426.050722 819.007209 426.050722zM819.007209 297.801802 582.497611 297.801802c-11.533684 0-20.793582-9.260921-20.793582-20.792559 0-11.452843 9.259898-20.791535 20.793582-20.791535L819.007209 256.217708c11.494799 0 20.793582 9.338692 20.793582 20.791535C839.800791 288.540881 830.502008 297.801802 819.007209 297.801802z"  horiz-adv-x="1024" />

    
    <glyph glyph-name="wechat" unicode="&#58889;" d="M670.950192 528.473191c10.293021 0 20.526083-0.759485 30.61924-1.878726-27.501354 128.11274-164.448104 223.288011-320.78171 223.288011-174.761112 0-317.923648-119.139024-317.923648-270.396071 0-87.320597 47.627509-159.01179 127.233336-214.613892l-31.798441-95.634959 111.144244 55.72202c39.773034-7.874661 71.671207-15.949186 111.364295-15.949186 9.953252 0 19.86653 0.499661 29.699863 1.259146-6.215786 21.245595-9.813347 43.5103-9.813347 66.614635C400.674239 415.749818 519.932981 528.473191 670.950192 528.473191zM500.006492 614.674547c23.943766 0 39.79302-15.769308 39.79302-39.673102 0-23.843834-15.849254-39.79282-39.79302-39.79282-23.843834 0-47.727441 15.949186-47.727441 39.79282C452.279051 598.945211 476.20283 614.674547 500.006492 614.674547zM277.517939 535.228611c-23.843834 0-47.867346 15.949186-47.867346 39.79282 0 23.92378 24.043698 39.673102 47.867346 39.673102 23.843834 0 39.673102-15.769308 39.673102-39.673102C317.19104 551.177598 301.341786 535.228611 277.517939 535.228611zM961.132848 280.661807c0 127.113417-127.213549 230.72297-270.056302 230.72297-151.277034 0-270.395872-103.629539-270.395872-230.72297 0-127.313282 119.138824-230.72297 270.395872-230.72297 31.658536 0 63.596681 7.99458 95.395122 15.949186l87.220664-47.767614-23.92378 79.445936C913.605072 145.473665 961.132848 208.970614 961.132848 280.661807zM603.41618 320.474614c-15.849254 0-31.798441 15.769308-31.798441 31.798441 0 15.849254 15.949186 31.798441 31.798441 31.798441 24.043698 0 39.79282-15.949186 39.79282-31.798441C643.209 336.20395 627.479865 320.474614 603.41618 320.474614zM778.29721 320.474614c-15.729336 0-31.57859 15.769308-31.57859 31.798441 0 15.849254 15.849254 31.798441 31.57859 31.798441 23.843834 0 39.79282-15.949186 39.79282-31.798441C818.090031 336.20395 802.121058 320.474614 778.29721 320.474614z"  horiz-adv-x="1024" />

    
    <glyph glyph-name="xia" unicode="&#58890;" d="M492.516 136.523l-450.066 450.066c-10.342 10.254-10.342 27.12 0 37.484 10.364 10.32 27.207 10.32 37.506 0l432.044-432.066 432.066 432.044c10.342 10.32 27.12 10.32 37.506 0 10.342-10.364 10.342-27.229 0-37.484l-450.044-450.044c-5.346-5.367-12.48-7.789-19.527-7.593-7.047-0.196-14.138 2.226-19.484 7.593z"  horiz-adv-x="1024" />

    
    <glyph glyph-name="you" unicode="&#58891;" d="M744.383 361.838l-450.038-450.083c-10.254-10.342-27.12-10.342-37.483 0-10.32 10.386-10.32 27.229 0 37.505l432.038 432.061-432.038 432.038c-10.32 10.342-10.32 27.142 0 37.505 10.363 10.342 27.229 10.342 37.483 0l450.038-450.017c5.367-5.346 7.789-12.48 7.593-19.527 0.218-7.047-2.226-14.138-7.593-19.483z"  horiz-adv-x="1024" />

    
    <glyph glyph-name="zuo" unicode="&#58892;" d="M258.407 403.484l450.066 450.066c10.233 10.342 27.098 10.342 37.462 0 10.342-10.364 10.342-27.207 0-37.506l-432.044-432.044 432.044-432.044c10.342-10.364 10.342-27.142 0-37.506-10.364-10.364-27.229-10.364-37.462 0l-450.066 450.022c-5.389 5.346-7.811 12.48-7.614 19.527-0.196 7.047 2.247 14.138 7.614 19.484z"  horiz-adv-x="1024" />

    
    <glyph glyph-name="shang" unicode="&#58893;" d="M492.516 626.123l-450.066-450.044c-10.342-10.233-10.342-27.098 0-37.462 10.364-10.342 27.207-10.342 37.506 0l432.044 432.044 432.066-432.044c10.342-10.342 27.12-10.342 37.506 0 10.342 10.364 10.342 27.229 0 37.462l-450.044 450.044c-5.346 5.389-12.48 7.833-19.527 7.614-7.047 0.218-14.138-2.226-19.484-7.614z"  horiz-adv-x="1024" />

    
    <glyph glyph-name="gongju" unicode="&#58895;" d="M916.422378 182.534546l-200.653973 200.639646c12.921287 36.074613 19.461237 73.782424 19.461237 112.426559 0 184.603415-150.179394 334.799182-334.799182 334.799182-45.959751 0-90.675162-9.263991-132.8671-27.525913l-19.960611-8.640798c-0.031722-0.031722 0.124843-0.047072 0.062422-0.077771-1.898233-0.826831-3.674693-2.025123-5.231141-3.581572-6.602372-6.615675-6.602372-17.374716 0.032746-24.007787 0.093121-0.094144-0.094144-0.140193-0.032746-0.233314l187.452299-187.453323L317.133336 466.143858 133.447826 649.843694c-0.280386-0.031722-0.560772-0.047072-0.934279 0.326435-7.78429 7.78429-20.395516 7.78429-28.181853 0-2.116197-2.133593-3.674693-4.609994-4.63967-7.256264-0.093121-0.248663-0.217964-0.124843-0.341784-0.140193l-6.197142-14.323217c-18.24555-42.145889-27.52489-86.860277-27.52489-132.851751 0-184.588065 150.180418-334.799182 334.799182-334.799182 38.611389 0 76.3192 6.538927 112.438838 19.461237l200.654996-200.626343c27.092032-27.088962 63.119573-42.035372 101.450577-42.035372 0 0 0 0 0.032746 0 38.299281 0 74.358545 14.94641 101.449553 42.035372C972.347085 35.560146 972.347085 126.577093 916.422378 182.534546zM871.365182 24.724357c-15.07023-15.071254-35.093263-23.352871-56.360635-23.352871l-0.032746 0c-21.298072 0-41.320081 8.28264-56.359612 23.352871l-230.764757 230.735082-19.896142-8.594749c-34.158984-14.789844-70.342068-22.292726-107.521852-22.292726-149.432381 0-271.027763 121.562637-271.027763 271.02674 0 20.769023 2.335185 41.212634 6.974855 61.141522l168.582533-168.614256c7.068999-5.637394 16.782222-5.714142 23.976064-0.35918l177.239703 177.23868c0.062422 0.062422-0.063445 0.141216 0 0.202615 7.223518 7.224542 7.441483 18.497283 1.24434 26.328645L339.272565 759.669008c19.960611 4.623297 40.386826 6.958482 61.155848 6.958482 149.432381 0 271.028786-121.581056 271.028786-271.027763 0-37.226856-7.505951-73.392544-22.294772-107.491153l-8.594749-19.895119 230.765781-230.765781C902.410246 106.368842 902.410246 55.802166 871.365182 24.724357z"  horiz-adv-x="1024" />

    
    <glyph glyph-name="shezhi" unicode="&#58900;" d="M601.346-96l-162.764 0.044-3.207 96.786c-44.814 8.88-87.142 25.418-126.218 49.266l-73.374-68.706-115.134 115.134 66.218 70.8c-25.462 38.029-43.724 79.614-54.502 123.971l-100.364 3.36 0 162.786 96.786 3.207c8.88 44.771 25.396 87.098 49.244 126.196l-68.662 73.374 115.134 115.113 70.8-66.24c38.051 25.462 79.614 43.746 123.971 54.524l3.338 100.386 162.807 0 3.207-96.807c44.771-8.88 87.076-25.396 126.174-49.222l73.374 68.64 115.113-115.113-66.196-70.778c25.44-38.029 43.724-79.593 54.502-123.971l100.407-3.338 0-162.764-96.786-3.251c-8.88-44.793-25.418-87.098-49.266-126.174l68.64-73.374-115.113-115.069-70.8 66.218c-38.073-25.506-79.636-43.789-123.993-54.546l-3.338-100.451zM478.946-54.218l82.058-0.044 3.098 92.814 16.233 3.207c50.073 9.949 96.48 30.414 137.891 60.807l13.964 10.254 66.327-62.051 58.014 57.993-63.426 67.833 9.207 13.746c28.538 42.654 46.909 89.913 54.654 140.466l2.618 17.106 90.676 3.033 0 82.058-92.814 3.098-3.207 16.233c-9.971 50.138-30.414 96.546-60.764 137.891l-10.254 13.964 62.051 66.327-58.036 58.014-67.789-63.447-13.767 9.207c-42.676 28.538-89.934 46.909-140.466 54.633l-17.127 2.618-3.011 90.676-82.058 0-3.098-92.771-16.254-3.229c-50.116-9.949-96.524-30.414-137.891-60.786l-13.964-10.254-66.327 62.051-58.036-58.014 63.469-67.811-9.207-13.767c-28.538-42.676-46.909-89.934-54.633-140.444l-2.618-17.127-90.698-3.033 0-82.058 92.771-3.12 3.229-16.211c9.949-50.138 30.414-96.524 60.764-137.891l10.254-13.964-62.029-66.327 58.036-58.036 67.811 63.469 13.767-9.207c42.633-28.538 89.891-46.909 140.466-54.698l17.127-2.618 2.989-90.589zM511.978 219.687c-90.611 0-164.356 73.702-164.356 164.334 0 90.611 73.724 164.334 164.356 164.334 90.633 0 164.356-73.724 164.356-164.334 0-90.633-73.724-164.334-164.356-164.334zM511.978 506.64c-67.614 0-122.618-55.004-122.618-122.618s55.004-122.596 122.618-122.596 122.618 55.004 122.618 122.596c0 67.593-55.004 122.618-122.618 122.618z"  horiz-adv-x="1024" />

    
    <glyph glyph-name="chazhao" unicode="&#58904;" d="M470.676-7.527c-238.124 0-431.847 193.724-431.847 431.826 0 238.146 193.724 431.869 431.847 431.869s431.847-193.724 431.847-431.869c0-238.102-193.702-431.826-431.847-431.826zM470.676 812.531c-214.058 0-388.211-174.153-388.211-388.233 0-214.058 174.153-388.189 388.211-388.189 214.08 0 388.211 174.131 388.211 388.189 0 214.08-174.131 388.233-388.211 388.233zM964.466-88.167c-5.346 0-10.713 1.964-14.946 5.913l-206.313 193.68c-8.771 8.247-9.229 22.08-0.982 30.851 8.269 8.771 22.08 9.186 30.851 0.982l206.313-193.68c8.771-8.247 9.229-22.08 0.982-30.851-4.276-4.582-10.08-6.894-15.906-6.894z"  horiz-adv-x="1024" />

    
    <glyph glyph-name="guanbi" unicode="&#58906;" d="M512-96c-264.654 0-480 215.346-480 480s215.346 480 480 480c264.676 0 480-215.346 480-480s-215.302-480-480-480zM512 822.262c-241.658 0-438.24-196.582-438.24-438.262 0-241.658 196.604-438.262 438.262-438.262 241.68 0 438.262 196.626 438.262 438.262 0 241.68-196.604 438.262-438.284 438.262zM657.026 215.084c-5.346 0-10.691 2.029-14.771 6.087l-288.982 289.026c-8.16 8.16-8.16 21.36 0 29.52s21.36 8.16 29.52 0l288.982-289.026c8.16-8.138 8.16-21.36 0-29.52-4.058-4.058-9.382-6.087-14.749-6.087zM363.92 215.062c-5.346 0-10.669 2.051-14.749 6.087-8.16 8.16-8.16 21.36 0 29.52l296.138 296.138c8.16 8.16 21.36 8.16 29.52 0 8.138-8.16 8.138-21.36 0-29.52l-296.138-296.138c-4.08-4.036-9.426-6.087-14.771-6.087z"  horiz-adv-x="1024" />

    
    <glyph glyph-name="zan1" unicode="&#58910;" d="M886.59584 472.46208 648.01152 472.46208C740.45184 813.91488 584.30464 831.36 584.30464 831.36c-66.2016 0-52.4608-52.34048-57.4592-61.06112 0-166.98624-177.37216-297.8368-177.37216-297.8368l0-473.54752c0-46.72768 63.70048-63.55456 88.6848-63.55456l358.5024 0c33.728 0 61.20576 88.48256 61.20576 88.48256C946.56 325.41184 946.56 415.13472 946.56 415.13472 946.56 477.44256 886.59584 472.46208 886.59584 472.46208L886.59584 472.46208zM886.59584 472.46208M251.56736 472.3072 108.69888 472.3072c-29.51296 0-29.97888-28.97664-29.97888-28.97664l29.51296-477.59232c0-30.37824 30.4448-30.37824 30.4448-30.37824l123.66336 0c25.76256 0 25.5296 20.09472 25.5296 20.09472L287.87072 436.09088C287.87072 472.77312 251.56736 472.3072 251.56736 472.3072L251.56736 472.3072zM251.56736 472.3072"  horiz-adv-x="1024" />

    
    <glyph glyph-name="zan2" unicode="&#58911;" d="M672.183-88.455c-131.101 0-169.062 17.779-213.016 38.367-31.516 14.761-66.854 31.313-154.322 42.633l0-24.949L167.749-32.404c-23.197 0-45.206 13.059-60.385 35.829-13.324 19.985-20.662 45.997-20.662 73.241L86.702 412.959c0 27.244 7.337 53.256 20.661 73.244 15.18 22.772 37.189 35.833 60.386 35.833l137.095 0 0-18.81c91.205 30.877 177.978 75.259 241.939 124.133 38.139 29.143 66.716 58.678 84.938 87.784 18.39 29.374 25.571 57.599 21.346 83.891-2.306 14.347 2.438 30.095 12.69 42.126 9.291 10.903 21.847 17.156 34.448 17.156 28.613 0 70.359-14.717 93.844-56.194 17.614-31.111 21.814-71.47 12.482-119.956-8.828-45.87-30.028-99.6-63.151-160.141l124.973 0c26.048 0 47.994-11.833 61.797-33.319 10.64-16.564 16.265-38.535 16.265-63.538 0-36.064-11.407-73.896-31.514-97.523 0.424-0.688 0.838-1.389 1.242-2.102 7.442-13.137 11.216-30.063 11.216-50.305 0-28.441-7.67-60.894-20.519-86.811-8.778-17.708-19.396-31.269-31.238-40.197 0.483-3.787 0.723-7.871 0.723-12.284 0-25.167-8.115-58.034-20.675-83.732-12.825-26.244-29.532-44.01-48.388-51.92-5.22-25.631-20.443-47.731-44.146-63.533C738.724-79.5 706.43-88.455 672.183-88.455zM308.777 42.454c96.898-12.273 136.407-30.78 171.598-47.263 40.135-18.799 71.836-33.646 191.808-33.646 41.947 0 87.095 18.485 87.095 59.07l0 25 25 0c5.086 0 11.704 5.229 18.157 14.347 8.636 12.201 16.078 30.109 20.419 49.134 4.482 19.646 3.729 32.25 2.663 35.276 1.028-2.918 6.599-8.638 14.813-8.638l0 50c3.622 0 12.72 6.761 21.713 24.901 9.446 19.057 15.315 43.811 15.315 64.603 0 11.012-1.721 20.364-4.72 25.66-1.69 2.983-2.504 2.983-4.285 2.983l0 50c2.658 0 9.304 4.73 15.817 17.425 7.666 14.939 12.243 35.075 12.243 53.861 0 15.182-2.96 28.15-8.333 36.514-4.657 7.25-10.558 10.343-19.729 10.343L656.05 472.024l22.718 37.863c99.954 166.587 87.87 239.164 71.771 267.599-12.663 22.366-34.252 29.661-47.143 30.695-0.4-0.589-0.747-1.268-0.875-1.765 11.264-71.849-32.079-147.493-125.38-218.787-71.842-54.896-170.163-104.301-272.126-136.989L308.777 42.454zM167.749 472.035c-14.357 0-31.047-25.806-31.047-59.076l0-336.293c0-33.268 16.689-59.07 31.047-59.07l87.095 0-0.029 454.439L167.749 472.035z"  horiz-adv-x="1024" />

    
    <glyph glyph-name="zan3" unicode="&#58912;" d="M0.032 521.537c0-35.456 12.192-62.496 36.032-78.208-14.464-8.192-35.776-48.703-35.776-84.48 1.44-59.104 58.624-102.912 144.96-102.912l228.929 0c-39.2-106.688-31.808-250.56 17.345-327.36 29.599-46.208 65.152-56.576 89.824-56.576 83.072 0 85.792 80.032 85.792 107.264 0 91.073 13.151 132.576 29.536 170.848 12.992 24.768 92.512 106.24 173.76 106.24l152.256 0c58.785 0 101.408 49.216 101.312 119.264l-39.488 416.672c-4.768 64.192-36.288 103.071-99.52 103.072 0 0-31.487 0.256-55.072 0.256-12.032 0-23.264-0.096-29.921-0.256-19.489-0.64-35.552-13.12-49.761-23.616-10.048-7.392-18.016-13.824-25.248-13.824-3.231 0-21.696 10.592-44.352 20.224-23.104 9.759-59.743 17.856-94.784 17.857l-318.431 0c-106.752 0-158.016-40-158.016-106.688 0-19.711 4.545-31.392 15.488-46.656-42.849-10.272-80.864-37.216-80.864-83.68 0-17.248 8.128-44.96 19.232-52.32-20.96-5.344-63.296-42.721-63.232-85.12zM801.568 853.375c19.072 0.608 87.487 0 87.936 0 24.544 0 46.303-23.136 51.84-54.208l39.488-433.152c0-32.417-26.08-67.936-60.896-67.936l0 0.223-149.504 0.448c-2.56 0-5.088-0.32-7.616-0.416l0 529.887c6.912 4.832 13.376 9.504 17.984 12.896 6.336 4.672 16.927 11.808 20.768 12.256zM103.36 578.304c0.064 0 5.76 0 5.793 0l-0.544 38.656c-4.639 1.76-21.76 6.912-21.792 40.512 0 36 47.296 50.464 87.136 50.464l-0.096 0 0.672 36.832c-16.224 3.616-22.048 17.792-22.016 40.448 0 39.616 32.192 68.16 115.808 68.16l329.761 0c15.776 0 47.807-9.184 66.271-18.112 17.408-8.416 45.312-24.16 54.944-29.376l0-514.56c-82.912-22.976-151.36-94.496-168.64-127.52-18.784-43.68-28.192-89.344-28.192-189.504 0-49.761-18.272-56.448-37.728-56.448-17.217 0-44.576 18.976-58.4 40.608-40.928 63.903-50.496 201.568 0.416 304.672l8.767 35.68-292.256-0.064c-49.76 2.72-99.776 23.072-99.776 59.776l0.352 11.488c-0.161 0.48 1.216 31.808 17.888 45.632 13.984 11.616 25.312 12 25.312 12l0.32 38.048c0 0-16.864 2.272-25.664 8.32-13.248 9.088-19.264 26.304-18.56 45.12 0.864 23.808 37.664 59.169 60.224 59.168z"  horiz-adv-x="1025" />

    
    <glyph glyph-name="zan4" unicode="&#58914;" d="M137.405 295.538h238.583c-92.44-341.453 63.707-358.898 63.707-358.898 66.202 0 52.461 52.339 57.459 61.061 0 166.986 177.372 297.838 177.372 297.838v473.548c0 46.728-63.7 63.555-88.685 63.555h-358.502c-33.728 0-61.206-88.483-61.206-88.483-88.695-301.569-88.694-391.292-88.694-391.292 0-62.307 59.964-57.327 59.964-57.327v0zM772.432 295.693h142.868c29.513 0 29.979 28.977 29.979 28.977l-29.513 477.592c0 30.377-30.444 30.378-30.444 30.378h-123.663c-25.763 0-25.53-20.095-25.53-20.095v-480.636c0-36.682 36.304-36.216 36.304-36.216v0zM772.432 295.693z"  horiz-adv-x="1024" />

    
    <glyph glyph-name="zhuanjialiebiaohaoyouguanxianniu" unicode="&#58926;" d="M116.79849982 265.66639806l335.20351484-206.28155968 0 146.70318575c237.76366131 0 498.79082937 0 498.79082935 0l0 88.02512654-880.21911137 0C70.57534142 294.1131491 87.56236403 281.41548657 116.79849982 265.66639806zM904.56968563 498.60050829L569.36617079 704.88206796l0-146.70318576c-237.76366131 0-498.79082937 0-498.79082937 0l0-88.02512654 880.21911139 0C950.79445123 470.15375724 933.8058214 482.85141978 904.56968563 498.60050829zM116.79849982 265.66639806l335.20351484-206.28155968 0 146.70318575c237.76366131 0 498.79082937 0 498.79082935 0l0 88.02512654-880.21911137 0C70.57534142 294.1131491 87.56236403 281.41548657 116.79849982 265.66639806zM904.56968563 498.60050829L569.36617079 704.88206796l0-146.70318576c-237.76366131 0-498.79082937 0-498.79082937 0l0-88.02512654 880.21911139 0C950.79445123 470.15375724 933.8058214 482.85141978 904.56968563 498.60050829z"  horiz-adv-x="1024" />

    
    <glyph glyph-name="shijian" unicode="&#58915;" d="M511.886925-63.112154c-246.736521 0-447.474404 200.729697-447.474404 447.475428 0 246.736521 200.738907 447.475428 447.474404 447.475428 246.737544 0 447.476451-200.738907 447.476451-447.475428C959.364399 137.617543 758.625492-63.112154 511.886925-63.112154L511.886925-63.112154zM511.886925 792.930553c-225.288023 0-408.566256-183.278233-408.566256-408.566256s183.278233-408.566256 408.566256-408.566256c225.289046 0 408.567279 183.278233 408.567279 408.566256S737.176994 792.930553 511.886925 792.930553L511.886925 792.930553zM511.886925 792.930553M492.430804 345.454102c-10.741645 0-19.452028 8.712429-19.452028 19.457144L472.978776 695.655066c0 10.740622 8.710382 19.451004 19.452028 19.451004 10.745738 0 19.456121-8.710382 19.456121-19.451004l0-330.747913C511.886925 354.166531 503.177566 345.454102 492.430804 345.454102L492.430804 345.454102zM492.430804 345.454102M764.807285 345.454102 492.430804 345.454102c-10.741645 0-19.452028 8.712429-19.452028 19.457144 0 10.741645 8.710382 19.453051 19.452028 19.453051l272.375457 0c10.745738 0 19.458167-8.711406 19.458167-19.453051C784.264429 354.166531 775.553023 345.454102 764.807285 345.454102L764.807285 345.454102zM764.807285 345.454102"  horiz-adv-x="1024" />

    
    <glyph glyph-name="rno" unicode="&#58954;" d="M991.168 743.137c0 66.261-53.294 120.505-119.554 120.505l-839.614 0.357 960-960-0.832 839.138zM733.383 589.799c7.255-1.428 13.799-2.141 19.628-2.141-0.476-16.892-1.903-32.357-4.402-46.394-6.305 1.428-13.086 2.379-20.342 2.855 3.925 16.417 5.591 31.643 5.115 45.681zM559.941 556.372c0.951-19.867 8.208-41.873 21.77-66.023-9.159 3.45-18.677 2.618-28.313-2.141-8.208 17.843-13.205 37.353-14.87 58.409-1.665 21.055 1.309 45.085 9.041 72.208l-50.796-50.796c-9.161-9.161-17.367-17.843-24.624-26.171l-16.655 16.655c8.684 6.781 17.606 14.751 26.885 23.911l52.937 52.937c-30.454-7.257-56.149-10.112-76.967-8.684s-38.423 3.569-52.937 6.543c2.379 6.305 2.379 14.989 0 26.171 11.063-5.353 28.432-9.041 51.866-11.302 23.435-2.141 47.703-0.357 72.922 5.472l-36.282 36.282c-10.587 10.587-19.152 18.558-25.339 23.911l13.086 13.086c6.781-7.733 15.227-16.655 25.339-26.885l46.394-46.394 29.026 29.026-30.454 30.454c-11.658 11.658-21.293 20.818-29.026 27.598l13.086 13.086c6.781-7.733 15.465-16.892 26.171-27.598l31.881-31.881c14.513 14.513 24.624 25.101 30.454 31.881l15.94-15.94c-6.305-5.353-16.892-15.465-31.881-30.454l31.881-31.881c9.161-9.161 18.082-17.606 26.885-25.339l-13.086-13.086c-7.732 8.684-16.178 17.606-25.339 26.885l-31.881 31.881-29.145-29.026 42.825-42.825c10.587-10.587 20.818-20.342 30.454-29.026l-13.086-13.086c-8.684 9.636-18.082 19.628-28.313 29.739l-34.855 34.855c-4.282-21.77-5.947-42.588-4.996-62.453zM601.338 425.754c1.428 6.305 1.428 13.561 0 21.77 7.733-0.951 14.275 0.238 19.628 3.569l71.138 71.138c-5.829 5.829-13.799 13.324-23.911 22.483l13.086 13.086c8.208-9.159 15.94-17.367 23.197-24.624l13.086-13.086c-8.684-7.733-17.843-16.417-27.598-26.171l-47.941-47.941c8.208 0.476 17.13 1.19 26.885 2.141-2.379-5.353-4.163-11.895-5.115-19.628-13.561 0-25.457-0.238-35.569-0.713-10.231-0.238-19.152-0.951-26.885-2.022zM728.268 423.613c-5.829-0.951-12.372-2.141-19.628-3.569-3.331 20.818-6.543 35.569-9.398 44.253 5.829 0.951 11.539 2.379 17.367 4.402 4.877-17.487 8.803-32.476 11.658-45.085zM721.725 289.428c-0.476 16.892-3.806 37.71-10.112 62.453 7.732 0.951 14.037 2.379 18.914 4.402 6.305-29.502 10.349-51.034 12.372-64.595-6.9-0.119-13.918-0.832-21.174-2.26zM760.862 363.42c8.684-8.684 18.796-18.32 30.454-29.026l-13.086-13.086c-8.684 9.636-18.082 19.628-28.313 29.739l-20.342 20.342c-13.561-5.829-26.409-8.446-38.423-7.971-12.134 0.476-23.435 2.379-34.141 5.829-10.587 3.331-19.628 6.781-26.885 10.112 0.951 6.781 1.665 13.799 2.141 21.055 14.989-10.112 30.335-16.297 46.037-18.558 15.702-2.141 28.193-1.071 37.353 3.212l-18.082 18.082c-9.161 9.161-19.152 18.558-29.739 28.313l13.086 13.086c8.208-9.161 17.606-19.152 28.311-29.739l21.77-21.77c8.684 6.781 17.843 14.275 27.598 22.483 9.636 8.208 17.843 15.702 24.624 22.483 2.855-5.829 7.018-11.897 12.372-18.082-6.781-3.925-14.633-9.517-23.554-17.011-8.922-7.494-18.558-14.87-28.669-22.126l17.487-17.367zM733.383 472.267c6.305 1.428 12.134 2.855 17.367 4.402 4.282-20.818 7.732-36.282 10.112-46.394-5.829-0.951-12.372-2.141-19.628-3.569-1.309 17.725-4.044 32.951-7.852 45.562zM863.167 420.758c-7.257 8.208-21.532 22.959-42.825 44.253l-15.108-15.227 49.369-49.367c-23.197-9.636-39.138-16.417-47.941-20.342-1.903 4.877-4.402 10.587-7.255 17.367 11.539 4.877 20.103 8.446 25.339 10.825l-60.193 60.193c-10.112 10.112-20.58 20.103-31.167 29.739l12.372 12.372c9.636-10.587 25.101-26.647 46.394-47.941l15.227 15.227c-17.367 17.367-31.405 30.929-42.112 40.684l12.372 12.372c5.829-6.781 19.39-20.818 40.684-42.112 6.781 6.781 13.086 13.561 18.914 20.342l14.513-14.513c-8.208-7.255-14.989-13.561-20.342-18.914 20.342-20.342 35.093-34.617 44.253-42.825l-12.49-12.134z"  horiz-adv-x="1024" />

    
    <glyph glyph-name="upload" unicode="&#59057;" d="M440.544 252.64l0 262.944 142.912 0 0.032-262.944-142.912 0zM761.76 515.584l-249.792 249.76-249.728-249.76zM798.944 300.96l-0.064-150.336c0-15.456-15.04-27.936-33.536-27.936l-506.848 0c-18.528 0-33.504 12.512-33.504 27.936l0 152.096-111.68 0.32 0-253.888c0-25.696 20.8-46.528 46.592-46.528l704 0c25.76 0 46.624 20.832 46.624 46.528l0.096 251.456-111.712 0.32z"  horiz-adv-x="1024" />

    
    <glyph glyph-name="yuandianxiao-copy-copy" unicode="&#58885;" d="M320 416c0-88.366 71.634-160 160-160s160 71.634 160 160c0 88.366-71.634 160-160 160-88.366 0-160-71.634-160-160z"  horiz-adv-x="1024" />

    
    <glyph glyph-name="jianhao1" unicode="&#58940;" d="M835.037301 378.047428l-646.074601 0c-6.753821 0-12.279674 5.525853-12.279674 12.279674l0 14.939247c0 6.753821 5.525853 12.279674 12.279674 12.279674l646.074601 0c6.753821 0 12.279674-5.525853 12.279674-12.279674l0-14.939247C847.316975 383.573281 841.791122 378.047428 835.037301 378.047428z"  horiz-adv-x="1024" />

    
    <glyph glyph-name="gengxin" unicode="&#58883;" d="M376.942001 386.130524l-67.953671 0 0-26.981515 65.830311 0C375.900276 367.309876 376.608404 376.303714 376.942001 386.130524zM460.885855 429.851281l-63.956637 0c-0.083911-10.077519-0.209778-19.071358-0.375553-26.981515l64.332191 0L460.885855 429.851281zM377.566218 429.851281l-68.578911 0 0-26.981515 68.203358 0C377.357464 410.863834 377.482307 419.857672 377.566218 429.851281zM310.36263 342.160079c11.491729-15.989159 25.273616-28.398794 41.346687-37.22481 8.993838 7.744381 15.614629 20.151969 19.86135 37.22481L310.36263 342.160079zM460.885855 386.130524l-64.705698 0c-0.417509-9.661034-1.209548-18.654872-2.37407-26.981515l67.080791 0L460.886879 386.130524zM686.791955 650.488377 339.907527 650.488377c-151.313218 0-273.975908-122.663714-273.975908-273.975908l0 0c0-151.313218 122.663714-273.975908 273.975908-273.975908l346.884428 0c151.313218 0 273.975908 122.663714 273.975908 273.975908l0 0C960.767863 527.825686 838.105173 650.488377 686.791955 650.488377zM524.343119 471.073124l53.963029 0c-3.581572 6.827499-7.662517 14.240329-12.241812 22.23542l15.989159 7.494695c5.16258-8.494465 9.993608-17.072841 14.490016-25.732058l-8.369621-3.997034 53.089126 0 0-15.989159L524.343119 455.084988 524.343119 471.073124zM516.348028 413.112038l40.223097 0c-7.079232 11.242042-13.740956 20.902052-19.986193 28.980032l13.491269 9.493212c5.496178-6.66377 12.573363-16.07307 21.23565-28.230971l-14.115486-10.243295 32.978089 0c9.075703 13.072737 17.445324 25.982768 25.107841 38.723953l17.73799-9.993608c-8.079002-10.411117-15.782451-19.986193-23.109324-28.730345l37.849026 0 0-15.989159L516.348028 397.121855 516.348028 413.112038zM499.609809 258.466935c-66.122977 1.832741-114.716718 9.952676-145.777131 24.358781-19.155269-12.657274-46.177716-22.859637-81.07041-30.604018-3.331885 5.829775-7.163143 11.742439-11.491729 17.73799 30.479175 5.080715 55.044664 12.909008 73.699536 23.483854-14.240329 9.825786-27.149337 22.734794-38.723953 38.723953l13.115716 9.993608-19.361977 0L289.99986 446.839187l87.690178 0c0.081864 7.161097 0.165776 14.821567 0.249687 22.984481L270.264377 469.823668l0 17.488303 229.345432 0 0-17.488303L397.178905 469.823668c0-8.244778-0.044002-15.907295-0.125867-22.984481l82.820264 0 0-116.92092-18.987447 0 0 12.241812-69.952188 0c-4.330632-19.736507-11.202133-34.935674-20.611433-45.594431 33.392528-12.241812 79.902818-18.278295 139.53087-18.11252C505.687224 271.126256 502.273475 264.46351 499.609809 258.466935zM516.348028 289.196821c8.160867 12.657274 16.905018 29.312606 26.232454 49.965995l16.98893-7.995091c-8.993838-18.821671-17.905812-35.809577-26.731828-50.965765C528.006556 283.200246 522.510378 286.198533 516.348028 289.196821zM592.296791 285.198763c0-17.654079-8.494465-26.482141-25.482371-26.482141-7.163143 0-15.240099 0.083911-24.233937 0.249687-0.667196 5.496178-1.583055 11.82635-2.7486 18.987447 9.658987-0.99977 17.238616-1.499144 22.734794-1.499144 7.826246 0 11.742439 4.246721 11.742439 12.741185l0 61.208037L523.343349 350.403834l0 15.989159 50.965765 0 0 23.733541 17.987676 0 0-23.733541 48.967248 0 0-15.989159-48.967248 0L592.296791 285.198763zM599.791485 328.17046l14.739702 9.742898c9.325389-12.659321 17.488303-24.317848 24.483624-34.976606l-15.989159-10.992355C615.696734 304.767448 607.952352 316.843484 599.791485 328.17046zM765.428943 385.880837 729.703277 385.880837l0-130.911562-18.48705 0 0 130.911562-36.975123 0 0-12.241812c0-51.133587-12.241812-90.938152-36.725436-119.41881-3.997034 5.164626-8.4126 10.492982-13.240559 15.989159 21.485337 23.483854 32.228005 58.210773 32.228005 104.179734L656.503115 478.567819c34.476209 0.331551 66.286706 3.747347 95.435583 10.243295l6.495948-19.237133c-32.978089-4.330632-61.042261-7.163143-84.192517-8.494465l0-58.210773 91.187839 0L765.429966 385.880837z"  horiz-adv-x="1024" />

    
    <glyph glyph-name="seo-marketing-business-tags-keywords" unicode="&#58933;" d="M822.016 390.784a64 64 0 0 1 18.736 45.28v268a64 64 0 0 1-64 63.936H508.8a64 64 0 0 1-45.248-18.736l-348.8-348.736a64 64 0 0 1 0-90.512l267.952-267.952a63.808 63.808 0 0 1 45.248-18.752 63.84 63.84 0 0 1 29.856 7.728c34.192 28.16-16.4-20.768 364.208 359.744zM450.56 64.688c-6.048-6.048-14.08-9.376-22.624-9.376s-16.576 3.328-22.624 9.376L137.376 332.64A31.792 31.792 0 0 0 128 355.264c0 8.56 3.328 16.592 9.376 22.64l348.8 348.72c6.048 6.048 14.08 9.376 22.624 9.376h267.952c17.648 0 32-14.352 32-32v-267.952c0-8.544-3.328-16.576-9.376-22.624l-348.8-348.736zM904.752 704v-299.952c0-8.544-3.328-16.576-9.36-22.624l-378.08-377.984 22.64-22.64 378.048 378a64 64 0 0 1 18.752 45.248V704h-32zM664.752 656c-35.28 0-64-28.704-64-64s28.72-64 64-64 64 28.704 64 64-28.72 64-64 64z m0-96c-17.648 0-32 14.352-32 32s14.352 32 32 32 32-14.352 32-32-14.336-32-32-32z"  horiz-adv-x="1024" />

    
    <glyph glyph-name="cuowuguanbi" unicode="&#59029;" d="M1024 384c0 282.624-229.376 512-512 512s-512-229.376-512-512 229.376-512 512-512c117.248 0 228.864 39.424 318.976 111.104 10.752 8.704 12.8 24.064 4.096 35.328s-24.064 12.8-35.328 4.096c-81.408-64.512-181.76-100.352-287.744-100.352-254.976 0-461.824 206.848-461.824 461.824s206.848 461.824 461.824 461.824 461.824-206.848 461.824-461.824c0-87.552-24.576-171.52-69.632-243.712-7.168-11.776-3.584-27.136 8.192-34.304 11.776-7.168 27.136-3.584 34.304 8.192C996.864 194.048 1024 287.232 1024 384z m-692.224-151.552c-9.728-9.728-9.728-25.6 0.512-35.328 9.728-9.728 25.6-9.728 35.328 0.512l350.208 356.352c9.728 9.728 9.728 25.6-0.512 35.328-9.728 9.728-25.6 9.728-35.328-0.512l-350.208-356.352z m350.208-34.816c9.728-9.728 25.6-10.24 35.328-0.512 9.728 9.728 10.24 25.6 0.512 35.328l-350.208 356.352c-9.728 9.728-25.6 10.24-35.328 0.512-9.728-9.728-10.24-25.6-0.512-35.328l350.208-356.352z"  horiz-adv-x="1024" />

    
    <glyph glyph-name="jianglishuoming" unicode="&#58913;" d="M350.972025 793.2795c17.623379-12.766768 36.748972-29.365818 51.571562-51.0507 14.838963-21.627577 42.207287-49.771567 42.207287-49.771567l223.165686 0c0 0 23.575952 24.367991 37.82242 43.668569 14.334473 19.241226 26.359344 37.598316 53.237505 54.858422 22.239514 14.146185 33.882692 49.796126 5.119601 61.208037-24.89704 9.834996-35.038004-10.562567-63.923892-11.066033-28.39163-0.536212-32.314986 23.576975-60.515259 34.262338-28.202319 10.628058-43.340087 1.255597-60.143799-14.963807-16.72287-16.285918-23.179932-17.003256-23.179932-17.003256s-19.835767 11.726066-30.795377 24.105001c-10.908444 12.386098-39.422871 16.921391-57.986669 5.095042-23.750937-15.185864-29.010731-26.722618-48.656163-30.869055-22.37152-4.715395-57.847499 22.692838-77.370135 6.664793C322.020646 832.447569 333.350692 806.037059 350.972025 793.2795zM806.932708 496.361067C723.857641 566.496427 679.312098 633.264087 679.312098 633.264087L436.072215 633.264087c0 0-46.698578-69.846788-121.154337-134.862547-85.478813-74.751494-154.796552-194.560184-128.751363-337.877287C209.289142 32.820756 329.92364-111.909533 558.613132-111.909533c221.389226 0 351.223247 119.897717 376.061958 266.205944C964.900485 332.985116 877.647259 436.597939 806.932708 496.361067zM676.785555 118.489904c-14.087856 0.122797-88.558965 0-88.558965 0s0.24764-20.274766 0.314155-30.934546c0.033769-12.891611-12.105712-27.318182-29.208229-27.004027-17.09433 0.314155-29.910217 8.365528-31.100322 28.043706-0.552585 8.769734-0.397043 29.894867-0.397043 29.894867s-74.974575 0-89.484034 0c-14.475689 0-24.551162 16.507976-24.047696 28.704762 0.51984 12.196787 11.256368 25.145703 24.047696 25.145703 12.791327 0 89.690742 0 89.690742 0l0.190335 61.745273c0 0-72.77856-0.503467-86.329181-0.503467-13.55983 0-23.26282 9.488095-23.668049 21.6286-0.412392 12.164041 10.893094 35.07996 23.684422 35.07996 12.808724 0 86.594217 0 86.594217 0l0.12382 22.131043c0 0-69.094658 73.563436-77.080539 81.481779-8.018627 7.985882-17.969257 26.220175-5.169743 40.811498 12.271488 13.989619 35.048237 3.898797 45.782719-6.481621 11.949146-11.5695 67.162656-68.971861 67.162656-68.971861s64.321958 60.142775 77.683267 71.300906c13.18837 10.999518 31.182186 11.759835 41.389666-0.62831 10.058077-12.138458 5.937223-23.833825-10.347672-38.853913-16.343223-14.904455-79.32772-79.665411-79.32772-79.665411l0-20.182668 82.977853 0c18.753109-0.50449 29.390377-21.87624 29.076222-33.1981-0.37146-13.138228-7.795547-23.947412-28.572756-23.76731l-82.994226-0.181125-0.488117-61.241806c0 0 60.101843 0 81.450057 0 21.363564 0 30.100552-11.132548 30.604018-25.64917C701.352067 132.72614 690.83248 118.36506 676.785555 118.489904z"  horiz-adv-x="1024" />

    
    <glyph glyph-name="quxiaoguanzhu" unicode="&#59519;" d="M627.242697 35.786297H162.646334c-23.532973 0-51.013861 11.223622-51.013861 42.85504v17.860787c0 26.281573 19.587104 51.668777 47.617508 61.732993l0.829901 0.296758 151.056368 67.326385c14.264888 4.469801 47.813982 16.223496 61.515028 31.587416 15.07944 16.911158 16.789385 55.343469 3.586689 80.633458-2.170432 4.155646-5.824659 9.746992-11.358699 18.211781-21.61632 33.064047-72.236208 110.496603-72.236208 172.856883 0 122.047684 78.520331 221.340107 175.033455 221.340107 96.515171 0 175.036525-99.293447 175.036526-221.340107 0-56.100716-42.950208-120.954793-68.617798-159.710469-13.58439-20.510126-20.804838-31.654954-23.638373-41.142025-10.30674-34.499745-8.163937-59.237149 6.365988-73.520457 15.119349-14.859429 46.309722-27.432793 52.401464-29.798677l51.862181-20.210297a204.986651 204.986651 0 0 0 34.755572 36.69269l-69.638033 27.137057c-12.275581 4.777817-28.484751 12.841469-35.191501 18.334577-0.37146 2.619664-0.802272 10.9197 4.287653 27.956726 1.137916 3.52222 11.57871 19.286252 17.817808 28.705785 28.574802 43.144636 76.401064 115.356284 76.401064 185.55816 0 70.721715-22.496363 137.416719-63.345724 187.798177-42.010813 51.814086-98.299817 80.347956-158.49785 80.347956-60.19701 0-116.484991-28.534893-158.494781-80.347956-40.84936-50.381457-63.345724-117.075439-63.345723-187.798177 0-76.29771 53.937446-158.808936 79.863932-198.469214l0.053212-0.082888c3.87833-5.931083 7.887644-12.06478 8.990768-14.179954 4.932336-9.445116 3.849678-24.177656 2.292206-28.444842-4.713348-3.883447-23.014156-12.251022-41.033555-17.802458l-1.358951-0.415463-152.057161-67.775616c-45.796022-16.83748-77.758991-60.175521-77.758991-105.478309v-17.860787c0-25.163099 9.939373-48.063669 27.988448-64.481593 17.850553-16.237823 42.650379-25.179472 69.833484-25.179473h482.33026a202.344474 202.344474 0 0 0-17.735943 46.806026zM959.109084 8.066979l-77.412091 77.41209 75.117839 75.117838-35.003212 35.003212-75.117838-75.117838-77.413114 77.413114-35.002189-35.003212 77.412091-77.413114-79.707367-79.707366 35.003212-35.003212 79.707367 79.70839 77.413114-77.413114z"  horiz-adv-x="1024" />

    
    <glyph glyph-name="duigou1" unicode="&#59245;" d="M490.496 194.219l-0.512-0.53c-9.728-9.727-25.463-9.727-35.174 0l-197.632 197.617c-4.496 4.5-7.276 10.715-7.276 17.579 0 13.736 11.135 24.872 24.872 24.872 6.872 0 13.094-2.787 17.595-7.293l180.021-180.003 293.546 293.546c4.501 4.501 10.719 7.285 17.587 7.285 13.736 0 24.872-11.135 24.872-24.872 0-6.868-2.784-13.086-7.285-17.587l-310.614-310.613zM703.966-36.659c-56.038-26.265-121.689-41.593-190.92-41.593-0.368 0-0.736 0-1.103 0.001-255.243 0.001-462.193 206.934-462.193 462.251 0 255.3 206.932 462.25 462.25 462.25 255.3 0 462.25-206.933 462.25-462.25 0-0.072 0-0.158 0-0.243 0-123.088-48.207-234.916-126.771-317.635-4.020-4.245-6.608-10.262-6.608-16.884 0-13.735 11.135-24.87 24.87-24.87 7.114 0 13.53 2.987 18.063 7.775 89.338 94.543 140.197 219.454 140.197 351.857 0 282.778-229.222 512-512 512s-512-229.222-512-512 229.222-512 512-512c74.547 0 146.551 15.82 212.685 46.114 8.636 4.026 14.514 12.633 14.514 22.614 0 13.737-11.136 24.874-24.874 24.874-3.757 0-7.32-0.833-10.513-2.324z"  horiz-adv-x="1024" />

    
    <glyph glyph-name="wodezhanghao1" unicode="&#59023;" d="M503.601 358.25c124.748 0 226.253 104.068 226.253 231.981S628.396 822.189 503.601 822.189c-124.794 0-226.253-104.046-226.253-231.958 0-127.911 101.458-231.981 226.253-231.981z m0 417.814c99.323 0 180.128-83.365 180.128-185.833 0-102.481-80.805-185.856-180.128-185.856-99.322 0-180.128 83.375-180.128 185.856 0 102.468 80.806 185.833 180.128 185.833zM595.946 340.993H428.052c-157.175 0-285.051-130.996-285.051-292.058v-17.183c0-85.941 125.798-85.941 285.051-85.941h167.894c152.923 0 285.028 0 285.052 85.941v17.183c0.001 161.036-127.902 292.058-285.052 292.058z m238.928-309.228c-0.011-39.829-138.099-39.829-238.927-39.829H428.052c-111.992 0-238.926 0-238.926 39.816v17.183c0 135.608 107.181 245.933 238.926 245.933h167.894c131.745 0 238.927-110.325 238.927-245.933v-17.17z"  horiz-adv-x="1024" />

    
    <glyph glyph-name="shangchuan1" unicode="&#58880;" d="M512.627 336.692l209.526 199.489h-135.501l1.255 196.979c0 0-3.136 10.665-11.919 10.665s-133.621 0-133.621 0-5.646-5.018-5.646-10.665 0-196.979 0-196.979h-136.129l212.036-199.489zM328.821 346.047h-75.906l-137.384-100.372c0 0-10.038-9.409-10.038-31.994s26.975-144.911 26.975-144.911 15.683-30.739 39.521-30.739h680.647c0 0 28.857 2.509 41.403 36.385l24.465 131.738c0 0 0 11.292 0 20.074s-18.82 28.857-18.82 28.857l-127.974 90.962h-75.906l125.823-104.077-147.151 0.569-46.422-102.254-233.48-0.472-46.934 105.862-141.776 0 122.955 100.372z"  horiz-adv-x="1024" />

    
    <glyph glyph-name="wujilu" unicode="&#58894;" d="M456 31.2v1.6-1.6zM513.6 89.6c-32 0-57.6-24.8-57.6-56.8v-0.8c0-6.4 4.8-11.2 11.2-11.2s11.2 4.8 11.2 11.2v0.8c0 18.4 15.2 34.4 34.4 34.4s34.4-16 34.4-34.4v-0.8c0-6.4 4.8-11.2 11.2-11.2 6.4 0 11.2 4.8 11.2 11.2v0.8c1.6 30.4-24.8 56.8-56 56.8zM380 178.4c-16 3.2-39.2 3.2-44.8-13.6-3.2-10.4 13.6-11.2 28.8-15.2 12-3.2 18.4-9.6 17.6-11.2-3.2-4-21.6 3.2-37.6-2.4s-12.8-20-3.2-24c9.6-3.2 24.8 0.8 60-4.8 17.6-3.2 28.8 3.2 31.2 13.6 3.2 24.8-29.6 52.8-52 57.6zM593.6 120c2.4-10.4 12-16.8 31.2-13.6 35.2 5.6 50.4 1.6 60 4.8 9.6 3.2 12 18.4-3.2 24-16 5.6-33.6-1.6-37.6 2.4-2.4 3.2 4.8 9.6 17.6 12 15.2 3.2 32 4.8 28.8 15.2-4.8 16.8-28 17.6-44.8 13.6-23.2-4.8-56-32.8-52-58.4zM71.2-128C32-128 0-96 0-56.8V393.6c0 7.2 3.2 13.6 8 18.4l201.6 184c4.8 4 10.4 6.4 16.8 6.4h572.8c7.2 0 12.8-2.4 16.8-5.6l200-184c4.8-4.8 8.8-12 8.8-18.4V-56c0-39.2-32-71.2-71.2-71.2H71.2z m-40 71.2c0-21.6 18.4-39.2 40.8-39.2h882.4c21.6 0 39.2 16.8 39.2 39.2V386.4H676.8l-1.6-9.6c-5.6-34.4-22.4-66.4-48.8-92.8-31.2-28.8-70.4-44.8-112-44.8-41.6 0-81.6 16-112 44.8-26.4 24-43.2 56.8-48.8 92.8l-1.6 9.6H31.2v-443.2z m23.2 468.8h310.4c6.4 0 12-6.4 12-12.8 0-73.6 63.2-136 137.6-136s137.6 62.4 137.6 136c0 7.2 5.6 12.8 12 12.8h307.2l-173.6 160h-568l-175.2-160zM184.8 790.4c-28.8 0-52.8 24-52.8 52.8 0 28.8 24 52.8 52.8 52.8 28.8 0 52.8-24 52.8-52.8 0-28.8-24-52.8-52.8-52.8z m0 89.6c-20 0-36.8-16.8-36.8-36.8 0-20 16.8-36.8 36.8-36.8 20 0 36.8 16.8 36.8 36.8 0 20-16.8 36.8-36.8 36.8zM738.4 672.8c-19.2 0-35.2 16-35.2 35.2s16 35.2 35.2 35.2c19.2 0 35.2-16 35.2-35.2s-16-35.2-35.2-35.2z m0 53.6c-10.4 0-19.2-8.8-19.2-19.2S728 688 738.4 688s19.2 8.8 19.2 19.2-8.8 19.2-19.2 19.2zM364 716.8c-4.8 0-8 3.2-8 8v36c0 4.8 3.2 8 8 8s8-3.2 8-8v-36c0-4.8-4-8-8-8zM381.6 735.2h-36c-4.8 0-8 3.2-8 8s3.2 8 8 8h36c4.8 0 8-3.2 8-8s-3.2-8-8-8zM72 594.4c-4.8 0-8 3.2-8 8v70.4c0 4.8 3.2 8 8 8s8-3.2 8-8v-70.4c0-4.8-3.2-8-8-8zM107.2 629.6H36.8c-4.8 0-8 3.2-8 8s3.2 8 8 8h70.4c4.8 0 8-3.2 8-8s-3.2-8-8-8zM944 588c-4.8 0-8 3.2-8 8v51.2c0 4.8 3.2 8 8 8s8-3.2 8-8v-51.2c0-4.8-3.2-8-8-8zM969.6 613.6h-51.2c-4.8 0-8 3.2-8 8s3.2 8 8 8h51.2c4.8 0 8-3.2 8-8s-3.2-8-8-8zM856 726.4c-4.8 0-8 3.2-8 8V815.2c0 4.8 3.2 8 8 8s8-3.2 8-8v-80.8c0-4.8-3.2-8-8-8zM896 766.4h-80c-4.8 0-8 3.2-8 8s3.2 8 8 8h80c4.8 0 8-3.2 8-8s-3.2-8-8-8z"  horiz-adv-x="1024" />

    
    <glyph glyph-name="xiajiangjiantou" unicode="&#58919;" d="M749.9 830.9v-468.1h209.9l-447-425.9-447 425.9h209.8V830.9z"  horiz-adv-x="1024" />

    
    <glyph glyph-name="wendang" unicode="&#59381;" d="M197.502701 825.423595c12.510942 2.650363 25.424042 0.949628 38.087457 1.299599 141.837402 0.201591 283.726993-0.399089 425.562349 0.348947 10.413164-3.052522 16.565281-12.71151 23.970947-19.917632 46.797839-45.293579 92.795453-91.488691 139.837862-136.531559 6.457062-5.711072 6.206352-14.766308 6.305613-22.619161-0.097214-218.766492 0-437.475679-0.048095-656.242171 1.700735-15.257495-6.857175-34.583656-24.473391-34.3309-198.844767-0.751107-397.689534 0-596.529186-0.353041-12.763698-1.651616-27.476795 6.158257-29.580712 19.620873-2.251274 13.411451-1.199315 27.076682-1.300622 40.590464 0 258.497379 0.049119 517.000897-0.049119 775.502369-1.051959 13.160741 4.1536 28.777417 18.216897 32.632212z m31.931247-48.750307c-0.097214-256.500908-0.049119-512.998747 0-769.449514 183.879937-0.098237 367.80797-0.049119 551.738049-0.049118 0 207.30137 0.047072 414.552597-0.049118 621.802801-41.794895 0.201591-83.631746-0.144286-125.419478 0.098238-15.117302-0.644683-26.931373 14.114462-25.631774 28.63313-0.800225 39.635719-0.049119 79.32772-0.296758 118.964463H229.433948z m450.435852-34.58468c-0.097214-20.818141 0.201591-41.638329-0.396019-62.459541 21.516036-1.149173 43.089377-0.347924 64.663742-0.553608-20.72502 21.721721-43.094494 41.794895-64.267723 63.013149zM307.861158 494.650099c7.907087 6.055926 18.517749 5.102205 27.876908 5.607718 119.916137-0.299829 239.885486 0.100284 359.796506-0.201591 11.011798 0.401136 23.025413-3.553942 27.87793-14.262842 9.258874-15.464203-4.65195-37.639249-22.61916-35.640731-126.57786-0.049119-253.246795-0.096191-379.868657 0-22.122857-0.048095-31.630395 32.337499-13.063527 44.497446zM307.661613 380.085854c6.355755 5.562692 15.415085 4.504594 23.171746 5.058202 123.521245-0.297782 247.038396 0.103354 370.507452-0.201591 17.7165 0.850367 30.879288-19.920702 22.673395-35.58138-4.707209-10.511401-16.564257-15.668865-27.629267-14.46648-125.169791 0.401136-250.340605-0.303922-375.462301 0.352018-22.372543-0.25378-31.129998 32.531927-13.261025 44.839231zM307.610448 264.926044c5.457292 4.057409 11.613502 5.757121 18.466584 5.053086 125.07053-0.194428 250.191202 0.104377 375.312898-0.096191 16.312524 1.103124 29.384237-17.067724 23.627116-32.332382-3.656273-12.359492-17.067724-18.665105-29.332048-17.62031-121.664967-0.194428-243.286955 0.053212-364.952946-0.146332-8.80862 0.099261-18.568914 1.051959-25.27464 7.507997-10.860349 9.809413-9.958816 29.178553 2.153036 37.634132zM322.024739 155.522332c121.470539 1.348718 243.034199 0.048095 364.502691 0.650823 12.81077 0.049119 28.977985 0.199545 35.986609-12.857843 10.860349-15.220656-2.803859-38.994106-21.372773-37.244252-126.870526-0.047072-253.795287-0.146333-380.665812 0.055258-11.059893 0.049119-21.572318 10.512425-22.322402 21.421892-2.40477 14.059204 9.708106 27.875884 23.871687 27.974122z"  horiz-adv-x="1024" />

    
    <glyph glyph-name="shangchuan2" unicode="&#58927;" d="M948.672 229.562c-0.137 0-4.236 7.97-9.106 17.711l-127.707 255.388c-4.87 9.742-17.767 17.71-28.658 17.705l-105.84-0.034c-10.892-0.003-19.804-8.918-19.804-19.809v-33.65c0-10.891 8.911-19.809 19.804-19.817l33.649-0.022c10.892-0.006 23.755-7.999 28.586-17.761l90.516-182.905c4.83-9.762-0.127-17.747-11.021-17.747h-143.763c-10.892 0-19.803-8.91-19.803-19.802v-103.598c0-10.891-8.911-19.802-19.803-19.802h-249.143c-10.891 0-19.803 8.91-19.803 19.802v103.598c0 10.891-8.91 19.802-19.803 19.802h-146.676c-10.891 0-15.717 7.919-10.723 17.598l94.663 183.494c4.993 9.679 17.989 17.593 28.88 17.585l32.779-0.020c10.891-0.010 19.803 8.897 19.803 19.788v33.356c0 10.891-8.911 19.799-19.803 19.796l-105.355-0.035c-10.891-0.003-23.804-7.97-28.694-17.7l-128.339-255.392c-4.891-9.731-8.777-17.694-8.638-17.694 0.141 0 0.256-8.911 0.256-19.803v-179.83c0-10.891 8.91-19.803 19.803-19.803h834.194c10.892 0 19.803 8.911 19.803 19.803v179.997c0 10.891-0.113 19.802-0.251 19.802zM330.544 608.275h108.677v-305.045h145.542v305.045h114.498c10.891 0 13.892 6.67 6.669 14.82l-180.358 203.509c-7.223 8.151-18.964 8.082-26.090-0.156l-175.787-203.198c-7.124-8.238-4.045-14.977 6.848-14.977z"  horiz-adv-x="1024" />

    
    <glyph glyph-name="dingyue1" unicode="&#59166;" d="M91.022222 839.111111m-11.377778 0a11.377778 11.377778 0 1 1 22.755556 0 11.377778 11.377778 0 1 1-22.755556 0ZM312.888889 662.755556m-17.066667 0a17.066667 17.066667 0 1 1 34.133334 0 17.066667 17.066667 0 1 1-34.133334 0ZM142.222222 708.266667m-28.444444 0a28.444444 28.444444 0 1 1 56.888889 0 28.444444 28.444444 0 1 1-56.888889 0ZM703.300819 803.766955a14.791111 14.791111 0 1 1 29.210629 4.674079 14.791111 14.791111 0 1 1-29.210629-4.674079ZM211.626667 889.173333m-6.826667 0a6.826667 6.826667 0 1 1 13.653333 0 6.826667 6.826667 0 1 1-13.653333 0ZM981.902222 850.488889m-6.826666 0a6.826667 6.826667 0 1 1 13.653333 0 6.826667 6.826667 0 1 1-13.653333 0ZM868.124444 843.662222m-6.826666 0a6.826667 6.826667 0 1 1 13.653333 0 6.826667 6.826667 0 1 1-13.653333 0ZM392.533333 737.848889m-6.826666 0a6.826667 6.826667 0 1 1 13.653333 0 6.826667 6.826667 0 1 1-13.653333 0ZM704.284444 875.52m-20.48 0a20.48 20.48 0 1 1 40.96 0 20.48 20.48 0 1 1-40.96 0ZM944.355556 836.835556l3.413333-28.444445L972.8 793.6l-26.168889-11.377778-5.688889-27.306666-19.342222 20.48-28.444444-3.413334 14.791111 25.031111-12.515556 26.168889 28.444445-5.688889zM286.72 783.36l-17.066667-6.826667-3.413333-17.066666-12.515556 13.653333-17.066666-2.275556 9.102222 15.928889-6.826667 15.928889 17.066667-4.551111 13.653333 12.515556 1.137778-18.204445zM453.973333 826.595556l-10.24 7.964444 1.137778 12.515556 11.377778 4.551111 10.24-7.964445-1.137778-12.515555zM812.373333 749.226667L799.857778 736.711111l-4.551111 17.066667zM833.991111 651.377778l-10.24 7.964444 9.102222-10.24-10.24 9.102222 9.102223-10.24-9.102223 9.102223 7.964445-10.24-9.102222 10.24 6.826666-11.377778-7.964444 10.24 6.826666-11.377778-6.826666 11.377778 4.551111-12.515556-5.688889 11.377778 4.551111-12.515555-5.688889 12.515555 3.413334-12.515555-4.551112 12.515555 2.275556-13.653333-3.413333 13.653333 1.137777-13.653333-2.275555 13.653333 1.137778-13.653333-2.275556 13.653333v-13.653333 13.653333l-2.275555-13.653333 1.137777 13.653333-3.413333-13.653333 2.275556 13.653333-3.413334-12.515555 2.275556 12.515555-4.551111-12.515555 3.413333 12.515555-5.688889-11.377778 4.551111 12.515556-5.688889-12.515556 5.688889 12.515556-7.964444-11.377778 6.826666 11.377778-7.964444-10.24 6.826667 11.377778-9.102223-10.24 7.964445 11.377777-9.102222-10.24 9.102222 10.24-10.24-7.964444 9.102222 9.102222-10.24-7.964444 10.24 9.102222-11.377778-6.826667 10.24 6.826667-11.377777-5.688889 11.377777 6.826667-12.515555-4.551111 11.377778 5.688889-12.515556-4.551112 12.515556 5.688889-12.515556-3.413333 12.515556 4.551111-13.653334-2.275555 13.653334 2.275555h-13.653334l13.653334 1.137778h-13.653334l13.653334 1.137778-13.653334 1.137777h13.653334l-13.653334 2.275556 13.653334-1.137778-13.653334 3.413334 13.653334-2.275556-12.515556 3.413333 12.515556-2.275555-12.515556 4.551111 12.515556-3.413333-11.377778 5.688888 12.515555-5.688888-11.377777 6.826666 11.377777-5.688889-11.377777 7.964445 12.515555-6.826667-11.377778 7.964445 11.377778-6.826667-9.102222 9.102222 10.24-9.102222-9.102222 10.24 9.102222-9.102222-7.964445 10.24 9.102223-10.24-6.826667 11.377777 7.964444-10.24-6.826666 11.377778 6.826666-11.377778-4.551111 12.515556 5.688889-11.377778-4.551111 12.515556 5.688889-12.515556-3.413333 12.515556 4.551111-12.515556-3.413334 13.653334 4.551112-12.515556-2.275556 12.515556 3.413333-12.515556-1.137777 13.653333 2.275555-13.653333v13.653333-13.653333l2.275556 13.653333-1.137778-13.653333 2.275555 12.515556-1.137777-12.515556 3.413333 12.515556-2.275556-12.515556 4.551112 12.515556-3.413334-13.653334 4.551111 12.515556L819.2 679.822222l5.688889 11.377778-4.551111-11.377778 6.826666 11.377778-6.826666-12.515556 7.964444 11.377778-6.826666-11.377778 9.102222 10.24-7.964445-11.377777 9.102223 10.24-9.102223-10.24 10.24 7.964444-9.102222-9.102222 10.24 7.964444-9.102222-9.102222 10.24 7.964445-10.24-7.964445 11.377778 5.688889-10.24-6.826667 11.377777 5.688889-11.377777-6.826666 12.515555 4.551111-12.515555-5.688889 13.653333 3.413333-12.515556-4.551111 12.515556 3.413333-12.515556-4.551111 12.515556 2.275556-12.515556-2.275556h13.653334l-13.653334-1.137778 13.653334-1.137777h-13.653334l13.653334-1.137778h-13.653334l12.515556-2.275556-12.515556 1.137778 12.515556-3.413333-12.515556 2.275555 12.515556-4.551111-13.653333 3.413334 12.515555-4.551112-12.515555 4.551112 11.377777-6.826667-11.377777 5.688889 10.24-7.964445-11.377778 6.826667 11.377778-7.964444-11.377778 6.826666zM1012.622222-36.977778H352.711111c-5.688889 0-11.377778 4.551111-11.377778 11.377778s4.551111 11.377778 11.377778 11.377778h659.911111c6.826667 0 11.377778-4.551111 11.377778-11.377778s-4.551111-11.377778-11.377778-11.377778zM1012.622222-14.222222H352.711111c-5.688889 0-11.377778-4.551111-11.377778-11.377778s5.688889-11.377778 11.377778-11.377778h659.911111c6.826667 0 11.377778 4.551111 11.377778 11.377778s-4.551111 11.377778-11.377778 11.377778zM102.4-36.977778H11.377778c-5.688889 0-11.377778 4.551111-11.377778 11.377778s4.551111 11.377778 11.377778 11.377778h91.022222c5.688889 0 11.377778-4.551111 11.377778-11.377778s-4.551111-11.377778-11.377778-11.377778zM102.4-14.222222H11.377778c-6.826667 0-11.377778-4.551111-11.377778-11.377778s4.551111-11.377778 11.377778-11.377778h91.022222c6.826667 0 11.377778 4.551111 11.377778 11.377778s-4.551111 11.377778-11.377778 11.377778zM307.2-36.977778H147.911111c-5.688889 0-11.377778 4.551111-11.377778 11.377778s4.551111 11.377778 11.377778 11.377778h159.288889c5.688889 0 11.377778-4.551111 11.377778-11.377778s-4.551111-11.377778-11.377778-11.377778zM307.2-14.222222H147.911111c-6.826667 0-11.377778-4.551111-11.377778-11.377778s4.551111-11.377778 11.377778-11.377778h159.288889c5.688889 0 11.377778 4.551111 11.377778 11.377778s-5.688889 11.377778-11.377778 11.377778zM398.222222-128H147.911111c-5.688889 0-11.377778 4.551111-11.377778 11.377778s4.551111 11.377778 11.377778 11.377778h250.311111c5.688889 0 11.377778-4.551111 11.377778-11.377778s-5.688889-11.377778-11.377778-11.377778zM398.222222-105.244444H147.911111c-6.826667 0-11.377778-4.551111-11.377778-11.377778s4.551111-11.377778 11.377778-11.377778h250.311111c5.688889 0 11.377778 4.551111 11.377778 11.377778s-5.688889 11.377778-11.377778 11.377778zM876.088889-128c-6.826667 0-11.377778 4.551111-11.377778 11.377778s4.551111 11.377778 11.377778 11.377778 11.377778-4.551111 11.377778-11.377778-4.551111-11.377778-11.377778-11.377778zM876.088889-105.244444c-6.826667 0-11.377778-4.551111-11.377778-11.377778s4.551111-11.377778 11.377778-11.377778 11.377778 4.551111 11.377778 11.377778-4.551111 11.377778-11.377778 11.377778zM830.577778-128H443.733333c-5.688889 0-11.377778 4.551111-11.377777 11.377778s5.688889 11.377778 11.377777 11.377778h386.844445c6.826667 0 11.377778-4.551111 11.377778-11.377778s-4.551111-11.377778-11.377778-11.377778zM830.577778-105.244444H443.733333c-5.688889 0-11.377778-4.551111-11.377777-11.377778s5.688889-11.377778 11.377777-11.377778h386.844445c6.826667 0 11.377778 4.551111 11.377778 11.377778s-4.551111 11.377778-11.377778 11.377778zM159.288889-25.6c-19.342222 0-34.133333 14.791111-34.133333 34.133333V554.666667c0 19.342222 14.791111 34.133333 34.133333 34.133333h705.422222c19.342222 0 34.133333-14.791111 34.133333-34.133333v-546.133334c0-19.342222-14.791111-34.133333-34.133333-34.133333H159.288889zM864.711111 577.422222c12.515556 0 22.755556-10.24 22.755556-22.755555v-546.133334c0-12.515556-10.24-22.755556-22.755556-22.755555H159.288889c-12.515556 0-22.755556 10.24-22.755556 22.755555V554.666667c0 12.515556 10.24 22.755556 22.755556 22.755555h705.422222m0 22.755556H159.288889c-25.031111 0-45.511111-20.48-45.511111-45.511111v-546.133334c0-25.031111 20.48-45.511111 45.511111-45.511111h705.422222c25.031111 0 45.511111 20.48 45.511111 45.511111V554.666667c0 25.031111-20.48 45.511111-45.511111 45.511111zM216.177778-14.222222c0 37.546667 65.991111 68.266667 147.911111 68.266666s147.911111-30.72 147.911111-68.266666M204.8 600.177778h614.4v-22.755556H204.8zM512-14.222222c0 37.546667 65.991111 68.266667 147.911111 68.266666s147.911111-30.72 147.911111-68.266666M216.177778 588.8h295.822222v-614.4H216.177778zM500.622222 577.422222v-591.644444H227.555556V577.422222h273.066666m22.755556 22.755556H204.8v-637.155556h318.577778V600.177778zM216.177778 600.177778c0 37.546667 65.991111 68.266667 147.911111 68.266666s147.911111-30.72 147.911111-68.266666M523.377778 600.177778h-22.755556c0 27.306667-55.751111 56.888889-136.533333 56.888889s-136.533333-29.582222-136.533333-56.888889h-22.755556c0 44.373333 69.404444 79.644444 159.288889 79.644444s159.288889-35.271111 159.288889-79.644444zM512 588.8h295.822222v-614.4H512zM796.444444 577.422222v-591.644444H523.377778V577.422222h273.066666m22.755556 22.755556H500.622222v-637.155556h318.577778V600.177778zM227.555556 600.177778h273.066666v-22.755556H227.555556zM523.377778 600.177778h273.066666v-22.755556H523.377778zM500.622222 600.177778h22.755556v-614.4h-22.755556zM512 600.177778c0 37.546667 54.613333 68.266667 136.533333 68.266666s159.288889-30.72 159.288889-68.266666M580.266667 668.444444v-18.204444c-4.551111-2.275556-9.102222-4.551111-11.377778-4.551111-19.342222 0-34.133333-22.755556-56.888889-45.511111v-273.066667c19.342222 0 37.546667 34.133333 56.888889 34.133333 19.342222 0 37.546667-34.133333 56.888889-34.133333V668.444444h-45.511111zM819.2 600.177778h-22.755556c0 26.168889-65.991111 56.888889-147.911111 56.888889-78.506667 0-125.155556-28.444444-125.155555-56.888889h-22.755556c0 46.648889 62.577778 79.644444 147.911111 79.644444 81.92 0 170.666667-30.72 170.666667-79.644444zM512 600.177778m-11.377778 0a11.377778 11.377778 0 1 1 22.755556 0 11.377778 11.377778 0 1 1-22.755556 0ZM307.2-14.222222h45.511111v-22.755556h-45.511111zM307.2-25.6m-11.377778 0a11.377778 11.377778 0 1 1 22.755556 0 11.377778 11.377778 0 1 1-22.755556 0ZM307.2-14.222222c-6.826667 0-11.377778-4.551111-11.377778-11.377778s4.551111-11.377778 11.377778-11.377778 11.377778 4.551111 11.377778 11.377778-4.551111 11.377778-11.377778 11.377778zM352.711111-25.6m-11.377778 0a11.377778 11.377778 0 1 1 22.755556 0 11.377778 11.377778 0 1 1-22.755556 0ZM352.711111-14.222222c-6.826667 0-11.377778-4.551111-11.377778-11.377778s4.551111-11.377778 11.377778-11.377778 11.377778 4.551111 11.377778 11.377778-4.551111 11.377778-11.377778 11.377778zM796.444444 258.844444h22.755556v-45.511111h-22.755556zM807.822222 258.844444m-11.377778 0a11.377778 11.377778 0 1 1 22.755556 0 11.377778 11.377778 0 1 1-22.755556 0ZM807.822222 270.222222c-6.826667 0-11.377778-4.551111-11.377778-11.377778s4.551111-11.377778 11.377778-11.377777 11.377778 4.551111 11.377778 11.377777-4.551111 11.377778-11.377778 11.377778zM807.822222 213.333333m-11.377778 0a11.377778 11.377778 0 1 1 22.755556 0 11.377778 11.377778 0 1 1-22.755556 0ZM807.822222 224.711111c-6.826667 0-11.377778-4.551111-11.377778-11.377778s4.551111-11.377778 11.377778-11.377777 11.377778 4.551111 11.377778 11.377777-4.551111 11.377778-11.377778 11.377778zM113.777778 520.533333h22.755555v-45.511111h-22.755555zM125.155556 520.533333m-11.377778 0a11.377778 11.377778 0 1 1 22.755555 0 11.377778 11.377778 0 1 1-22.755555 0ZM125.155556 531.911111c-6.826667 0-11.377778-4.551111-11.377778-11.377778s4.551111-11.377778 11.377778-11.377777 11.377778 4.551111 11.377777 11.377777-4.551111 11.377778-11.377777 11.377778zM125.155556 475.022222m-11.377778 0a11.377778 11.377778 0 1 1 22.755555 0 11.377778 11.377778 0 1 1-22.755555 0ZM125.155556 486.4c-6.826667 0-11.377778-4.551111-11.377778-11.377778s4.551111-11.377778 11.377778-11.377778 11.377778 4.551111 11.377777 11.377778-4.551111 11.377778-11.377777 11.377778z"  horiz-adv-x="1024" />

    
    <glyph glyph-name="gengxindiedai" unicode="&#59097;" d="M877.056 535.04V615.424c0 35.84-13.824 69.12-39.424 94.72-25.088 25.088-58.88 39.424-94.72 39.424h-79.872l-56.32 56.32C581.632 830.976 547.84 844.8 512 844.8s-69.12-13.824-94.72-39.424l-56.32-56.32H280.576c-73.728 0-133.632-59.904-133.632-133.632v-79.872l-56.32-56.832c-25.6-25.6-39.424-58.88-39.424-94.72s13.824-69.632 38.912-94.72l56.832-56.832v-79.872c0-35.84 13.824-69.12 39.424-94.72 25.088-25.088 58.88-39.424 94.72-39.424h79.872l56.32-56.32c25.088-25.088 58.88-39.424 94.72-39.424s69.632 13.824 94.72 39.424l56.832 56.832h79.872c73.728 0 133.632 59.904 133.632 133.632v79.872l56.832 56.832c25.088 25.088 39.424 58.88 39.424 94.72s-13.824 69.12-39.424 94.72l-56.832 56.32z m-499.2-271.36h-49.152l-44.544 80.384c-12.288 22.016-26.112 49.152-36.352 73.216l-1.024-0.512c1.024-27.648 2.048-56.832 2.048-90.624v-62.464h-43.008V471.552h54.784l43.008-76.288c12.288-22.016 24.576-47.616 33.792-71.168h1.024c-3.072 27.648-4.096 55.296-4.096 86.528V471.552h43.008l0.512-207.872z m40.448 0V471.552h128.512v-38.4H465.408v-43.008h76.288v-38.4H465.408v-49.152h85.504v-38.4H418.304v-0.512z m363.008 0h-50.688l-17.408 89.6c-4.096 20.992-7.168 40.448-9.728 64h-0.512c-3.584-23.552-7.168-43.008-11.776-64l-19.968-89.6H619.52l-49.152 207.872h50.176l15.872-86.016c4.608-24.576 8.704-51.712 12.288-72.704h0.512c3.584 22.528 8.192 47.616 13.824 73.216l17.408 84.992h50.176l16.896-87.552c4.608-23.04 8.192-46.592 11.264-69.632h0.512c3.072 23.04 7.68 47.616 12.288 72.192L788.48 471.04h47.616l-54.784-207.36z"  horiz-adv-x="1024" />

    
    <glyph glyph-name="tuanduigongxianyeji" unicode="&#59720;" d="M243.34360946831276 649.8284285260905h-45.24739208954733v-528.8288950465843h630.6355272480657V157.7630395522632h-110.2905182182716V649.8284285260905h-45.24739208954733V157.7630395522632h-65.04312612872428V533.8819862966254h-45.24739208954733V157.7630395522632h-65.04312612872428v263.00046652049383h-45.24739208954733V157.7630395522632h-65.04312612872428v152.70994830222222H342.32227966419754V157.7630395522632h-93.32274618469135l-5.655924011193417 492.06538897382705zM794.7962005596708-62.81799688427975H229.20379944032913c-90.49478417909467 0-164.02179632460906 73.5270121455144-164.02179632460906 164.02179632460906V666.7962005596709c0 90.49478417909467 73.5270121455144 164.02179632460906 164.02179632460906 164.02179632460906h565.5924011193416c90.49478417909467 0 164.02179632460906-73.5270121455144 164.02179632460906-164.02179632460906v-565.5924011193416c0-90.49478417909467-73.5270121455144-164.02179632460906-164.02179632460906-164.02179632460906z m-565.5924011193416 848.3886016790121c-65.04312612872428 0-118.77440423506171-53.73127810633744-118.77440423506171-118.77440423506171v-565.5924011193416c0-65.04312612872428 53.73127810633744-118.77440423506171 118.77440423506171-118.77440423506171h565.5924011193416c65.04312612872428 0 118.77440423506171 53.73127810633744 118.77440423506171 118.77440423506171V666.7962005596709c0 65.04312612872428-53.73127810633744 118.77440423506171-118.77440423506171 118.77440423506171H229.20379944032913z"  horiz-adv-x="1024" />

    
    <glyph glyph-name="vip" unicode="&#58898;" d="M994.986667 827.733333c-6.826667 0-11.946667 1.706667-17.066667 1.706667H716.8c-10.24 0-17.066667-3.413333-23.893333-10.24-121.173333-124.586667-242.346667-249.173333-365.226667-373.76l-8.533333-8.533333v13.653333V815.786667c0 8.533333-1.706667 13.653333-11.946667 13.653333H37.546667c-6.826667 0-10.24-1.706667-8.533334-10.24v-81.92c0-8.533333 3.413333-11.946667 10.24-10.24h71.68c13.653333 0 13.653333 0 13.653334-13.653333v-774.826667c1.706667 0 1.706667 0 3.413333-1.706667C416.426667 233.813333 704.853333 530.773333 994.986667 827.733333"  horiz-adv-x="1024" />

    
    </font>
</defs>
</svg>
